%TF.GenerationSoftware,KiCad,Pcbnew,(6.0.8)*%
%TF.CreationDate,2023-01-31T20:26:13+04:00*%
%TF.ProjectId,keyboard-double_side,6b657962-6f61-4726-942d-646f75626c65,rev?*%
%TF.SameCoordinates,Original*%
%TF.FileFunction,Soldermask,Bot*%
%TF.FilePolarity,Negative*%
%FSLAX46Y46*%
G04 Gerber Fmt 4.6, Leading zero omitted, Abs format (unit mm)*
G04 Created by KiCad (PCBNEW (6.0.8)) date 2023-01-31 20:26:13*
%MOMM*%
%LPD*%
G01*
G04 APERTURE LIST*
%ADD10C,0.100000*%
%ADD11C,1.700000*%
%ADD12C,4.000000*%
%ADD13C,2.200000*%
%ADD14C,3.300000*%
%ADD15C,1.800000*%
%ADD16C,0.800000*%
%ADD17O,3.100000X1.700000*%
%ADD18O,2.200000X1.700000*%
G04 APERTURE END LIST*
%TO.C,D1*%
G36*
X85355274Y-95450511D02*
G01*
X84155274Y-95450511D01*
X84155274Y-94350511D01*
X85355274Y-94350511D01*
X85355274Y-95450511D01*
G37*
D10*
X85355274Y-95450511D02*
X84155274Y-95450511D01*
X84155274Y-94350511D01*
X85355274Y-94350511D01*
X85355274Y-95450511D01*
G36*
X81800000Y-95450000D02*
G01*
X80600000Y-95450000D01*
X80600000Y-94350000D01*
X81800000Y-94350000D01*
X81800000Y-95450000D01*
G37*
X81800000Y-95450000D02*
X80600000Y-95450000D01*
X80600000Y-94350000D01*
X81800000Y-94350000D01*
X81800000Y-95450000D01*
%TO.C,D11*%
G36*
X138925000Y-86225000D02*
G01*
X137725000Y-86225000D01*
X137725000Y-85125000D01*
X138925000Y-85125000D01*
X138925000Y-86225000D01*
G37*
X138925000Y-86225000D02*
X137725000Y-86225000D01*
X137725000Y-85125000D01*
X138925000Y-85125000D01*
X138925000Y-86225000D01*
G36*
X142480274Y-86225511D02*
G01*
X141280274Y-86225511D01*
X141280274Y-85125511D01*
X142480274Y-85125511D01*
X142480274Y-86225511D01*
G37*
X142480274Y-86225511D02*
X141280274Y-86225511D01*
X141280274Y-85125511D01*
X142480274Y-85125511D01*
X142480274Y-86225511D01*
%TO.C,D10*%
G36*
X138830274Y-145200511D02*
G01*
X137630274Y-145200511D01*
X137630274Y-144100511D01*
X138830274Y-144100511D01*
X138830274Y-145200511D01*
G37*
X138830274Y-145200511D02*
X137630274Y-145200511D01*
X137630274Y-144100511D01*
X138830274Y-144100511D01*
X138830274Y-145200511D01*
G36*
X135275000Y-145200000D02*
G01*
X134075000Y-145200000D01*
X134075000Y-144100000D01*
X135275000Y-144100000D01*
X135275000Y-145200000D01*
G37*
X135275000Y-145200000D02*
X134075000Y-145200000D01*
X134075000Y-144100000D01*
X135275000Y-144100000D01*
X135275000Y-145200000D01*
%TO.C,D2*%
G36*
X85330274Y-114125511D02*
G01*
X84130274Y-114125511D01*
X84130274Y-113025511D01*
X85330274Y-113025511D01*
X85330274Y-114125511D01*
G37*
X85330274Y-114125511D02*
X84130274Y-114125511D01*
X84130274Y-113025511D01*
X85330274Y-113025511D01*
X85330274Y-114125511D01*
G36*
X81775000Y-114125000D02*
G01*
X80575000Y-114125000D01*
X80575000Y-113025000D01*
X81775000Y-113025000D01*
X81775000Y-114125000D01*
G37*
X81775000Y-114125000D02*
X80575000Y-114125000D01*
X80575000Y-113025000D01*
X81775000Y-113025000D01*
X81775000Y-114125000D01*
%TO.C,D4*%
G36*
X100900000Y-86150000D02*
G01*
X99700000Y-86150000D01*
X99700000Y-85050000D01*
X100900000Y-85050000D01*
X100900000Y-86150000D01*
G37*
X100900000Y-86150000D02*
X99700000Y-86150000D01*
X99700000Y-85050000D01*
X100900000Y-85050000D01*
X100900000Y-86150000D01*
G36*
X104455274Y-86150511D02*
G01*
X103255274Y-86150511D01*
X103255274Y-85050511D01*
X104455274Y-85050511D01*
X104455274Y-86150511D01*
G37*
X104455274Y-86150511D02*
X103255274Y-86150511D01*
X103255274Y-85050511D01*
X104455274Y-85050511D01*
X104455274Y-86150511D01*
%TO.C,D3*%
G36*
X81900000Y-133700000D02*
G01*
X80700000Y-133700000D01*
X80700000Y-132600000D01*
X81900000Y-132600000D01*
X81900000Y-133700000D01*
G37*
X81900000Y-133700000D02*
X80700000Y-133700000D01*
X80700000Y-132600000D01*
X81900000Y-132600000D01*
X81900000Y-133700000D01*
G36*
X85455274Y-133700511D02*
G01*
X84255274Y-133700511D01*
X84255274Y-132600511D01*
X85455274Y-132600511D01*
X85455274Y-133700511D01*
G37*
X85455274Y-133700511D02*
X84255274Y-133700511D01*
X84255274Y-132600511D01*
X85455274Y-132600511D01*
X85455274Y-133700511D01*
%TO.C,D15*%
G36*
X158150000Y-87675000D02*
G01*
X156950000Y-87675000D01*
X156950000Y-86575000D01*
X158150000Y-86575000D01*
X158150000Y-87675000D01*
G37*
X158150000Y-87675000D02*
X156950000Y-87675000D01*
X156950000Y-86575000D01*
X158150000Y-86575000D01*
X158150000Y-87675000D01*
G36*
X161705274Y-87675511D02*
G01*
X160505274Y-87675511D01*
X160505274Y-86575511D01*
X161705274Y-86575511D01*
X161705274Y-87675511D01*
G37*
X161705274Y-87675511D02*
X160505274Y-87675511D01*
X160505274Y-86575511D01*
X161705274Y-86575511D01*
X161705274Y-87675511D01*
%TO.C,D8*%
G36*
X123430274Y-100700511D02*
G01*
X122230274Y-100700511D01*
X122230274Y-99600511D01*
X123430274Y-99600511D01*
X123430274Y-100700511D01*
G37*
X123430274Y-100700511D02*
X122230274Y-100700511D01*
X122230274Y-99600511D01*
X123430274Y-99600511D01*
X123430274Y-100700511D01*
G36*
X119875000Y-100700000D02*
G01*
X118675000Y-100700000D01*
X118675000Y-99600000D01*
X119875000Y-99600000D01*
X119875000Y-100700000D01*
G37*
X119875000Y-100700000D02*
X118675000Y-100700000D01*
X118675000Y-99600000D01*
X119875000Y-99600000D01*
X119875000Y-100700000D01*
%TO.C,D6*%
G36*
X104405274Y-124250511D02*
G01*
X103205274Y-124250511D01*
X103205274Y-123150511D01*
X104405274Y-123150511D01*
X104405274Y-124250511D01*
G37*
X104405274Y-124250511D02*
X103205274Y-124250511D01*
X103205274Y-123150511D01*
X104405274Y-123150511D01*
X104405274Y-124250511D01*
G36*
X100850000Y-124250000D02*
G01*
X99650000Y-124250000D01*
X99650000Y-123150000D01*
X100850000Y-123150000D01*
X100850000Y-124250000D01*
G37*
X100850000Y-124250000D02*
X99650000Y-124250000D01*
X99650000Y-123150000D01*
X100850000Y-123150000D01*
X100850000Y-124250000D01*
%TO.C,D7*%
G36*
X119925000Y-81350000D02*
G01*
X118725000Y-81350000D01*
X118725000Y-80250000D01*
X119925000Y-80250000D01*
X119925000Y-81350000D01*
G37*
X119925000Y-81350000D02*
X118725000Y-81350000D01*
X118725000Y-80250000D01*
X119925000Y-80250000D01*
X119925000Y-81350000D01*
G36*
X123480274Y-81350511D02*
G01*
X122280274Y-81350511D01*
X122280274Y-80250511D01*
X123480274Y-80250511D01*
X123480274Y-81350511D01*
G37*
X123480274Y-81350511D02*
X122280274Y-81350511D01*
X122280274Y-80250511D01*
X123480274Y-80250511D01*
X123480274Y-81350511D01*
%TO.C,D16*%
G36*
X158200000Y-106650000D02*
G01*
X157000000Y-106650000D01*
X157000000Y-105550000D01*
X158200000Y-105550000D01*
X158200000Y-106650000D01*
G37*
X158200000Y-106650000D02*
X157000000Y-106650000D01*
X157000000Y-105550000D01*
X158200000Y-105550000D01*
X158200000Y-106650000D01*
G36*
X161755274Y-106650511D02*
G01*
X160555274Y-106650511D01*
X160555274Y-105550511D01*
X161755274Y-105550511D01*
X161755274Y-106650511D01*
G37*
X161755274Y-106650511D02*
X160555274Y-106650511D01*
X160555274Y-105550511D01*
X161755274Y-105550511D01*
X161755274Y-106650511D01*
%TO.C,D5*%
G36*
X100925000Y-105275000D02*
G01*
X99725000Y-105275000D01*
X99725000Y-104175000D01*
X100925000Y-104175000D01*
X100925000Y-105275000D01*
G37*
X100925000Y-105275000D02*
X99725000Y-105275000D01*
X99725000Y-104175000D01*
X100925000Y-104175000D01*
X100925000Y-105275000D01*
G36*
X104480274Y-105275511D02*
G01*
X103280274Y-105275511D01*
X103280274Y-104175511D01*
X104480274Y-104175511D01*
X104480274Y-105275511D01*
G37*
X104480274Y-105275511D02*
X103280274Y-105275511D01*
X103280274Y-104175511D01*
X104480274Y-104175511D01*
X104480274Y-105275511D01*
%TO.C,D13*%
G36*
X142530274Y-124225511D02*
G01*
X141330274Y-124225511D01*
X141330274Y-123125511D01*
X142530274Y-123125511D01*
X142530274Y-124225511D01*
G37*
X142530274Y-124225511D02*
X141330274Y-124225511D01*
X141330274Y-123125511D01*
X142530274Y-123125511D01*
X142530274Y-124225511D01*
G36*
X138975000Y-124225000D02*
G01*
X137775000Y-124225000D01*
X137775000Y-123125000D01*
X138975000Y-123125000D01*
X138975000Y-124225000D01*
G37*
X138975000Y-124225000D02*
X137775000Y-124225000D01*
X137775000Y-123125000D01*
X138975000Y-123125000D01*
X138975000Y-124225000D01*
%TO.C,D14*%
G36*
X159705274Y-146150511D02*
G01*
X158505274Y-146150511D01*
X158505274Y-145050511D01*
X159705274Y-145050511D01*
X159705274Y-146150511D01*
G37*
X159705274Y-146150511D02*
X158505274Y-146150511D01*
X158505274Y-145050511D01*
X159705274Y-145050511D01*
X159705274Y-146150511D01*
G36*
X156150000Y-146150000D02*
G01*
X154950000Y-146150000D01*
X154950000Y-145050000D01*
X156150000Y-145050000D01*
X156150000Y-146150000D01*
G37*
X156150000Y-146150000D02*
X154950000Y-146150000D01*
X154950000Y-145050000D01*
X156150000Y-145050000D01*
X156150000Y-146150000D01*
%TO.C,D9*%
G36*
X123505274Y-119425511D02*
G01*
X122305274Y-119425511D01*
X122305274Y-118325511D01*
X123505274Y-118325511D01*
X123505274Y-119425511D01*
G37*
X123505274Y-119425511D02*
X122305274Y-119425511D01*
X122305274Y-118325511D01*
X123505274Y-118325511D01*
X123505274Y-119425511D01*
G36*
X119950000Y-119425000D02*
G01*
X118750000Y-119425000D01*
X118750000Y-118325000D01*
X119950000Y-118325000D01*
X119950000Y-119425000D01*
G37*
X119950000Y-119425000D02*
X118750000Y-119425000D01*
X118750000Y-118325000D01*
X119950000Y-118325000D01*
X119950000Y-119425000D01*
%TO.C,D17*%
G36*
X161655274Y-125600511D02*
G01*
X160455274Y-125600511D01*
X160455274Y-124500511D01*
X161655274Y-124500511D01*
X161655274Y-125600511D01*
G37*
X161655274Y-125600511D02*
X160455274Y-125600511D01*
X160455274Y-124500511D01*
X161655274Y-124500511D01*
X161655274Y-125600511D01*
G36*
X158100000Y-125600000D02*
G01*
X156900000Y-125600000D01*
X156900000Y-124500000D01*
X158100000Y-124500000D01*
X158100000Y-125600000D01*
G37*
X158100000Y-125600000D02*
X156900000Y-125600000D01*
X156900000Y-124500000D01*
X158100000Y-124500000D01*
X158100000Y-125600000D01*
%TO.C,D18*%
G36*
X180680274Y-152250511D02*
G01*
X179480274Y-152250511D01*
X179480274Y-151150511D01*
X180680274Y-151150511D01*
X180680274Y-152250511D01*
G37*
X180680274Y-152250511D02*
X179480274Y-152250511D01*
X179480274Y-151150511D01*
X180680274Y-151150511D01*
X180680274Y-152250511D01*
G36*
X177125000Y-152250000D02*
G01*
X175925000Y-152250000D01*
X175925000Y-151150000D01*
X177125000Y-151150000D01*
X177125000Y-152250000D01*
G37*
X177125000Y-152250000D02*
X175925000Y-152250000D01*
X175925000Y-151150000D01*
X177125000Y-151150000D01*
X177125000Y-152250000D01*
%TO.C,D12*%
G36*
X142580274Y-104975511D02*
G01*
X141380274Y-104975511D01*
X141380274Y-103875511D01*
X142580274Y-103875511D01*
X142580274Y-104975511D01*
G37*
X142580274Y-104975511D02*
X141380274Y-104975511D01*
X141380274Y-103875511D01*
X142580274Y-103875511D01*
X142580274Y-104975511D01*
G36*
X139025000Y-104975000D02*
G01*
X137825000Y-104975000D01*
X137825000Y-103875000D01*
X139025000Y-103875000D01*
X139025000Y-104975000D01*
G37*
X139025000Y-104975000D02*
X137825000Y-104975000D01*
X137825000Y-103875000D01*
X139025000Y-103875000D01*
X139025000Y-104975000D01*
%TD*%
D11*
%TO.C,SW6*%
X97995000Y-119075000D03*
X97995000Y-119075000D03*
X108155000Y-119075000D03*
D12*
X103075000Y-119075000D03*
X103075000Y-119075000D03*
D11*
X108155000Y-119075000D03*
D13*
X100535000Y-113995000D03*
X105615000Y-113995000D03*
X99265000Y-116535000D03*
X106885000Y-116535000D03*
%TD*%
D11*
%TO.C,SW13*%
X136145000Y-119100000D03*
X146305000Y-119100000D03*
D12*
X141225000Y-119100000D03*
D11*
X136145000Y-119100000D03*
D12*
X141225000Y-119100000D03*
D11*
X146305000Y-119100000D03*
D13*
X143765000Y-114020000D03*
X138685000Y-114020000D03*
X145035000Y-116560000D03*
X137415000Y-116560000D03*
%TD*%
D11*
%TO.C,SW9*%
X117072235Y-114421441D03*
X117072235Y-114421441D03*
D12*
X122152235Y-114421441D03*
X122152235Y-114421441D03*
D11*
X127232235Y-114421441D03*
X127232235Y-114421441D03*
D13*
X119612235Y-109341441D03*
X124692235Y-109341441D03*
X125962235Y-111881441D03*
X118342235Y-111881441D03*
%TD*%
D12*
%TO.C,SW11*%
X141175000Y-81000000D03*
D11*
X136095000Y-81000000D03*
D12*
X141175000Y-81000000D03*
D11*
X146255000Y-81000000D03*
X136095000Y-81000000D03*
X146255000Y-81000000D03*
D13*
X143715000Y-75920000D03*
X138635000Y-75920000D03*
X137365000Y-78460000D03*
X144985000Y-78460000D03*
%TD*%
D11*
%TO.C,SW4*%
X108145000Y-80995000D03*
X97985000Y-80995000D03*
D12*
X103065000Y-80995000D03*
D11*
X108145000Y-80995000D03*
X97985000Y-80995000D03*
D12*
X103065000Y-80995000D03*
D13*
X100525000Y-75915000D03*
X105605000Y-75915000D03*
X99255000Y-78455000D03*
X106875000Y-78455000D03*
%TD*%
D11*
%TO.C,SW8*%
X127230000Y-95375000D03*
D12*
X122150000Y-95375000D03*
D11*
X117070000Y-95375000D03*
D12*
X122150000Y-95375000D03*
D11*
X117070000Y-95375000D03*
X127230000Y-95375000D03*
D13*
X124690000Y-90295000D03*
X119610000Y-90295000D03*
X125960000Y-92835000D03*
X118340000Y-92835000D03*
%TD*%
D11*
%TO.C,SW14*%
X153393215Y-140888146D03*
X153393215Y-140888146D03*
X163398862Y-142652412D03*
D12*
X158396039Y-141770279D03*
X158396039Y-141770279D03*
D11*
X163398862Y-142652412D03*
D13*
X161779583Y-137208522D03*
X156776760Y-136326389D03*
X155084987Y-138607268D03*
X162589223Y-139930467D03*
%TD*%
D12*
%TO.C,SW10*%
X137475000Y-139925000D03*
D11*
X132395000Y-139925000D03*
X132395000Y-139925000D03*
D12*
X137475000Y-139925000D03*
D11*
X142555000Y-139925000D03*
X142555000Y-139925000D03*
D13*
X140015000Y-134845000D03*
X134935000Y-134845000D03*
X141285000Y-137385000D03*
X133665000Y-137385000D03*
%TD*%
D11*
%TO.C,SW2*%
X89105000Y-109525000D03*
X89105000Y-109525000D03*
X78945000Y-109525000D03*
D12*
X84025000Y-109525000D03*
D11*
X78945000Y-109525000D03*
D12*
X84025000Y-109525000D03*
D13*
X86565000Y-104445000D03*
X81485000Y-104445000D03*
X80215000Y-106985000D03*
X87835000Y-106985000D03*
%TD*%
D14*
%TO.C,*%
X190175000Y-156025000D03*
%TD*%
D11*
%TO.C,SW1*%
X89105000Y-90475000D03*
X78945000Y-90475000D03*
X78945000Y-90475000D03*
D12*
X84025000Y-90475000D03*
D11*
X89105000Y-90475000D03*
D12*
X84025000Y-90475000D03*
D13*
X86565000Y-85395000D03*
X81485000Y-85395000D03*
X87835000Y-87935000D03*
X80215000Y-87935000D03*
%TD*%
D15*
%TO.C,U2*%
X176135000Y-75595000D03*
X176135000Y-78135000D03*
X176135000Y-80675000D03*
X176135000Y-83215000D03*
X176135000Y-85755000D03*
X176135000Y-88295000D03*
X176135000Y-90835000D03*
X176135000Y-93375000D03*
X176135000Y-95915000D03*
X176135000Y-98455000D03*
X176135000Y-100995000D03*
X176135000Y-103535000D03*
X191375000Y-103535000D03*
X191375000Y-100995000D03*
X191375000Y-98455000D03*
X191375000Y-95915000D03*
X191375000Y-93375000D03*
X191375000Y-90835000D03*
X191375000Y-88295000D03*
X191375000Y-85755000D03*
X191375000Y-83215000D03*
X191375000Y-80675000D03*
X191375000Y-78135000D03*
X191375000Y-75595000D03*
%TD*%
D14*
%TO.C,*%
X98450000Y-140650000D03*
%TD*%
D16*
%TO.C,J1*%
X186475000Y-121075000D03*
X193475000Y-121075000D03*
X193475000Y-121075000D03*
X186475000Y-121075000D03*
D17*
X184325000Y-123275000D03*
X184325000Y-118850000D03*
D18*
X191775000Y-118875000D03*
X191775000Y-123275000D03*
X188775000Y-123275000D03*
X188775000Y-118875000D03*
D17*
X184325000Y-118850000D03*
X184325000Y-123275000D03*
%TD*%
D14*
%TO.C,*%
X167925000Y-68650000D03*
%TD*%
D12*
%TO.C,SW18*%
X178800000Y-147275000D03*
D11*
X183573639Y-149012462D03*
D12*
X178800000Y-147275000D03*
D11*
X174026362Y-145537537D03*
X174026362Y-145537537D03*
X183573639Y-149012462D03*
D13*
X178150643Y-141632630D03*
X182924282Y-143370092D03*
X176088502Y-143585084D03*
X183248960Y-146191277D03*
%TD*%
D11*
%TO.C,SW15*%
X165355000Y-82520000D03*
D12*
X160275000Y-82520000D03*
X160275000Y-82520000D03*
D11*
X165355000Y-82520000D03*
X155195000Y-82520000D03*
X155195000Y-82520000D03*
D13*
X162815000Y-77440000D03*
X157735000Y-77440000D03*
X156465000Y-79980000D03*
X164085000Y-79980000D03*
%TD*%
D12*
%TO.C,SW17*%
X160275000Y-120650000D03*
X160275000Y-120650000D03*
D11*
X155195000Y-120650000D03*
X165355000Y-120650000D03*
X165355000Y-120650000D03*
X155195000Y-120650000D03*
D13*
X162815000Y-115570000D03*
X157735000Y-115570000D03*
X164085000Y-118110000D03*
X156465000Y-118110000D03*
%TD*%
D12*
%TO.C,SW3*%
X84025000Y-128600000D03*
D11*
X89105000Y-128600000D03*
X78945000Y-128600000D03*
X89105000Y-128600000D03*
X78945000Y-128600000D03*
D12*
X84025000Y-128600000D03*
D13*
X86565000Y-123520000D03*
X81485000Y-123520000D03*
X80215000Y-126060000D03*
X87835000Y-126060000D03*
%TD*%
D11*
%TO.C,SW5*%
X108155000Y-100050000D03*
D12*
X103075000Y-100050000D03*
X103075000Y-100050000D03*
D11*
X97995000Y-100050000D03*
X97995000Y-100050000D03*
X108155000Y-100050000D03*
D13*
X100535000Y-94970000D03*
X105615000Y-94970000D03*
X99265000Y-97510000D03*
X106885000Y-97510000D03*
%TD*%
D11*
%TO.C,SW12*%
X136120000Y-100050000D03*
X136120000Y-100050000D03*
X146280000Y-100050000D03*
D12*
X141200000Y-100050000D03*
D11*
X146280000Y-100050000D03*
D12*
X141200000Y-100050000D03*
D13*
X138660000Y-94970000D03*
X143740000Y-94970000D03*
X145010000Y-97510000D03*
X137390000Y-97510000D03*
%TD*%
D11*
%TO.C,SW7*%
X117045000Y-76325000D03*
D12*
X122125000Y-76325000D03*
D11*
X127205000Y-76325000D03*
X127205000Y-76325000D03*
X117045000Y-76325000D03*
D12*
X122125000Y-76325000D03*
D13*
X124665000Y-71245000D03*
X119585000Y-71245000D03*
X118315000Y-73785000D03*
X125935000Y-73785000D03*
%TD*%
D12*
%TO.C,SW16*%
X160275000Y-101600000D03*
D11*
X155195000Y-101600000D03*
D12*
X160275000Y-101600000D03*
D11*
X165355000Y-101600000D03*
X155195000Y-101600000D03*
X165355000Y-101600000D03*
D13*
X157735000Y-96520000D03*
X162815000Y-96520000D03*
X156465000Y-99060000D03*
X164085000Y-99060000D03*
%TD*%
D15*
%TO.C,U1*%
X174210000Y-74295000D03*
X174210000Y-76835000D03*
X174210000Y-79375000D03*
X174210000Y-81915000D03*
X174210000Y-84455000D03*
X174210000Y-86995000D03*
X174210000Y-89535000D03*
X174210000Y-92075000D03*
X174210000Y-94615000D03*
X174210000Y-97155000D03*
X174210000Y-99695000D03*
X174210000Y-102235000D03*
X189450000Y-102235000D03*
X189450000Y-99695000D03*
X189450000Y-97155000D03*
X189450000Y-94615000D03*
X189450000Y-92075000D03*
X189450000Y-89535000D03*
X189450000Y-86995000D03*
X189450000Y-84455000D03*
X189450000Y-81915000D03*
X189450000Y-79375000D03*
X189450000Y-76835000D03*
X189450000Y-74295000D03*
%TD*%
D14*
%TO.C,*%
X75475000Y-69750000D03*
%TD*%
M02*
