%TF.GenerationSoftware,KiCad,Pcbnew,(6.0.8)*%
%TF.CreationDate,2023-01-31T20:26:13+04:00*%
%TF.ProjectId,keyboard-double_side,6b657962-6f61-4726-942d-646f75626c65,rev?*%
%TF.SameCoordinates,Original*%
%TF.FileFunction,Copper,L1,Top*%
%TF.FilePolarity,Positive*%
%FSLAX46Y46*%
G04 Gerber Fmt 4.6, Leading zero omitted, Abs format (unit mm)*
G04 Created by KiCad (PCBNEW (6.0.8)) date 2023-01-31 20:26:13*
%MOMM*%
%LPD*%
G01*
G04 APERTURE LIST*
%ADD10C,0.300000*%
%TA.AperFunction,NonConductor*%
%ADD11C,0.300000*%
%TD*%
%TA.AperFunction,NonConductor*%
%ADD12C,0.200000*%
%TD*%
%TA.AperFunction,ComponentPad*%
%ADD13C,2.200000*%
%TD*%
%TA.AperFunction,SMDPad,CuDef*%
%ADD14R,1.300000X1.200000*%
%TD*%
%TA.AperFunction,SMDPad,CuDef*%
%ADD15R,1.300000X0.500000*%
%TD*%
%TA.AperFunction,ComponentPad*%
%ADD16C,1.100000*%
%TD*%
%TA.AperFunction,ComponentPad*%
%ADD17C,3.300000*%
%TD*%
%TA.AperFunction,ComponentPad*%
%ADD18C,1.800000*%
%TD*%
%TA.AperFunction,ComponentPad*%
%ADD19O,3.100000X1.700000*%
%TD*%
%TA.AperFunction,ComponentPad*%
%ADD20O,2.200000X1.700000*%
%TD*%
%TA.AperFunction,ViaPad*%
%ADD21C,0.800000*%
%TD*%
%TA.AperFunction,Conductor*%
%ADD22C,0.500000*%
%TD*%
%TA.AperFunction,Conductor*%
%ADD23C,0.250000*%
%TD*%
G04 APERTURE END LIST*
D10*
D11*
X196107274Y-106867572D02*
X196107348Y-107153286D01*
X196178814Y-107296125D01*
X196250261Y-107367535D01*
X196464584Y-107510336D01*
X196750317Y-107581691D01*
X197321745Y-107581543D01*
X197464584Y-107510077D01*
X197535994Y-107438630D01*
X197607385Y-107295754D01*
X197607311Y-107010040D01*
X197535846Y-106867201D01*
X197464399Y-106795791D01*
X197321523Y-106724400D01*
X196964380Y-106724492D01*
X196821541Y-106795958D01*
X196750131Y-106867405D01*
X196678740Y-107010281D01*
X196678814Y-107295995D01*
X196750280Y-107438834D01*
X196821727Y-107510244D01*
X196964602Y-107581635D01*
X197607793Y-108867183D02*
X197607719Y-108581469D01*
X197536253Y-108438630D01*
X197464806Y-108367220D01*
X197250483Y-108224418D01*
X196964750Y-108153064D01*
X196393322Y-108153212D01*
X196250483Y-108224678D01*
X196179073Y-108296125D01*
X196107682Y-108439000D01*
X196107756Y-108724715D01*
X196179221Y-108867553D01*
X196250668Y-108938963D01*
X196393544Y-109010355D01*
X196750687Y-109010262D01*
X196893525Y-108938797D01*
X196964936Y-108867350D01*
X197036327Y-108724474D01*
X197036253Y-108438760D01*
X196964787Y-108295921D01*
X196893340Y-108224511D01*
X196750465Y-108153119D01*
X196179443Y-109724696D02*
X196108015Y-109724715D01*
X195965139Y-109653323D01*
X195893692Y-109581913D01*
X197108348Y-111010170D02*
X196108348Y-111010429D01*
X197679684Y-110652879D02*
X196608163Y-110296013D01*
X196608404Y-111224585D01*
X197608737Y-112510040D02*
X197608552Y-111795754D01*
X196894248Y-111724511D01*
X196965695Y-111795921D01*
X197037160Y-111938759D01*
X197037253Y-112295902D01*
X196965861Y-112438778D01*
X196894451Y-112510225D01*
X196751613Y-112581691D01*
X196394470Y-112581783D01*
X196251594Y-112510392D01*
X196180147Y-112438982D01*
X196108681Y-112296143D01*
X196108589Y-111939000D01*
X196179980Y-111796124D01*
X196251390Y-111724677D01*
X197608996Y-113510040D02*
X197609033Y-113652897D01*
X197537642Y-113795773D01*
X197466232Y-113867220D01*
X197323393Y-113938685D01*
X197037697Y-114010188D01*
X196680554Y-114010281D01*
X196394822Y-113938926D01*
X196251946Y-113867534D01*
X196180499Y-113796124D01*
X196109033Y-113653286D01*
X196108996Y-113510429D01*
X196180388Y-113367553D01*
X196251798Y-113296106D01*
X196394636Y-113224640D01*
X196680332Y-113153138D01*
X197037475Y-113153045D01*
X197323208Y-113224400D01*
X197466083Y-113295791D01*
X197537531Y-113367201D01*
X197608996Y-113510040D01*
X197609366Y-114938611D02*
X197609403Y-115081468D01*
X197538012Y-115224344D01*
X197466602Y-115295791D01*
X197323763Y-115367257D01*
X197038067Y-115438759D01*
X196680925Y-115438852D01*
X196395192Y-115367497D01*
X196252316Y-115296106D01*
X196180869Y-115224696D01*
X196109403Y-115081857D01*
X196109366Y-114939000D01*
X196180758Y-114796124D01*
X196252168Y-114724677D01*
X196395007Y-114653212D01*
X196680702Y-114581709D01*
X197037845Y-114581617D01*
X197323578Y-114652971D01*
X197466454Y-114724363D01*
X197537901Y-114795773D01*
X197609366Y-114938611D01*
X196109959Y-117224714D02*
X197109959Y-117224455D01*
X196324356Y-117653230D01*
X197110181Y-118081598D01*
X196110181Y-118081857D01*
X196110366Y-118796143D02*
X197110366Y-118795884D01*
X196324763Y-119224659D01*
X197110588Y-119653026D01*
X196110588Y-119653286D01*
D12*
X194500000Y-65000130D02*
X194388574Y-65000159D01*
X194525000Y-161450130D02*
X194413574Y-161450159D01*
X194974994Y-65000006D02*
X194999994Y-161450006D01*
X194974994Y-65000006D02*
X194999994Y-161450006D01*
X194974994Y-65000006D02*
X194388865Y-66126662D01*
X194974994Y-65000006D02*
X195561707Y-66126358D01*
X194999994Y-161450006D02*
X195586123Y-160323350D01*
X194999994Y-161450006D02*
X194413281Y-160323654D01*
D10*
D11*
X67913915Y-109670576D02*
X67914243Y-108670576D01*
X69414032Y-109313925D01*
X67914641Y-107456291D02*
X67914548Y-107742005D01*
X67985929Y-107884886D01*
X68057335Y-107956338D01*
X68271573Y-108099265D01*
X68557264Y-108170787D01*
X69128693Y-108170975D01*
X69271573Y-108099593D01*
X69343025Y-108028188D01*
X69414501Y-107885354D01*
X69414594Y-107599640D01*
X69343213Y-107456759D01*
X69271808Y-107385307D01*
X69128974Y-107313832D01*
X68771831Y-107313715D01*
X68628950Y-107385096D01*
X68557499Y-107456502D01*
X68486023Y-107599335D01*
X68485929Y-107885050D01*
X68557311Y-108027930D01*
X68628716Y-108099382D01*
X68771550Y-108170858D01*
X69343494Y-106599616D02*
X69414922Y-106599640D01*
X69557756Y-106671115D01*
X69629161Y-106742567D01*
X68057967Y-106027766D02*
X67986562Y-105956314D01*
X67915180Y-105813434D01*
X67915297Y-105456291D01*
X67986773Y-105313457D01*
X68058225Y-105242052D01*
X68201105Y-105170670D01*
X68343962Y-105170717D01*
X68558225Y-105242216D01*
X69415086Y-106099640D01*
X69415391Y-105171068D01*
X67915836Y-103813434D02*
X67915602Y-104527720D01*
X68629864Y-104599382D01*
X68558459Y-104527930D01*
X68487077Y-104385050D01*
X68487194Y-104027907D01*
X68558669Y-103885073D01*
X68630121Y-103813668D01*
X68773002Y-103742286D01*
X69130145Y-103742403D01*
X69272979Y-103813879D01*
X69344384Y-103885331D01*
X69415765Y-104028211D01*
X69415648Y-104385354D01*
X69344173Y-104528188D01*
X69272721Y-104599593D01*
X67916164Y-102813434D02*
X67916210Y-102670577D01*
X67987686Y-102527743D01*
X68059138Y-102456338D01*
X68202018Y-102384956D01*
X68487756Y-102313621D01*
X68844899Y-102313738D01*
X69130590Y-102385261D01*
X69273424Y-102456736D01*
X69344829Y-102528188D01*
X69416210Y-102671069D01*
X69416164Y-102813926D01*
X69344688Y-102956759D01*
X69273236Y-103028165D01*
X69130356Y-103099546D01*
X68844618Y-103170881D01*
X68487475Y-103170764D01*
X68201784Y-103099242D01*
X68058951Y-103027766D01*
X67987545Y-102956314D01*
X67916164Y-102813434D01*
X67916632Y-101384863D02*
X67916679Y-101242005D01*
X67988154Y-101099172D01*
X68059606Y-101027767D01*
X68202487Y-100956385D01*
X68488225Y-100885050D01*
X68845367Y-100885167D01*
X69131058Y-100956689D01*
X69273892Y-101028165D01*
X69345297Y-101099617D01*
X69416679Y-101242497D01*
X69416632Y-101385354D01*
X69345157Y-101528188D01*
X69273705Y-101599593D01*
X69130824Y-101670975D01*
X68845086Y-101742310D01*
X68487943Y-101742193D01*
X68202253Y-101670671D01*
X68059419Y-101599195D01*
X67988014Y-101527743D01*
X67916632Y-101384863D01*
X69417381Y-99099640D02*
X68417381Y-99099312D01*
X69203236Y-98670999D01*
X68417662Y-98242170D01*
X69417662Y-98242497D01*
X69417897Y-97528212D02*
X68417897Y-97527884D01*
X69203751Y-97099570D01*
X68418178Y-96670741D01*
X69418178Y-96671069D01*
D12*
X71025000Y-64975164D02*
X71136419Y-64975201D01*
X71000000Y-141225164D02*
X71111419Y-141225201D01*
X70549999Y-64975008D02*
X70524999Y-141225008D01*
X70549999Y-64975008D02*
X70524999Y-141225008D01*
X70549999Y-64975008D02*
X69963209Y-66101319D01*
X70549999Y-64975008D02*
X71136050Y-66101704D01*
X70524999Y-141225008D02*
X71111789Y-140098697D01*
X70524999Y-141225008D02*
X69938948Y-140098312D01*
D10*
D11*
X126405357Y-63853571D02*
X125548214Y-63853571D01*
X125976785Y-63853571D02*
X125976785Y-62353571D01*
X125833928Y-62567857D01*
X125691071Y-62710714D01*
X125548214Y-62782142D01*
X126976785Y-62496428D02*
X127048214Y-62425000D01*
X127191071Y-62353571D01*
X127548214Y-62353571D01*
X127691071Y-62425000D01*
X127762500Y-62496428D01*
X127833928Y-62639285D01*
X127833928Y-62782142D01*
X127762500Y-62996428D01*
X126905357Y-63853571D01*
X127833928Y-63853571D01*
X129119642Y-62853571D02*
X129119642Y-63853571D01*
X128762500Y-62282142D02*
X128405357Y-63353571D01*
X129333928Y-63353571D01*
X129976785Y-63782142D02*
X129976785Y-63853571D01*
X129905357Y-63996428D01*
X129833928Y-64067857D01*
X131262500Y-62853571D02*
X131262500Y-63853571D01*
X130905357Y-62282142D02*
X130548214Y-63353571D01*
X131476785Y-63353571D01*
X131905357Y-62353571D02*
X132905357Y-62353571D01*
X132262500Y-63853571D01*
X134191071Y-62353571D02*
X133476785Y-62353571D01*
X133405357Y-63067857D01*
X133476785Y-62996428D01*
X133619642Y-62925000D01*
X133976785Y-62925000D01*
X134119642Y-62996428D01*
X134191071Y-63067857D01*
X134262500Y-63210714D01*
X134262500Y-63567857D01*
X134191071Y-63710714D01*
X134119642Y-63782142D01*
X133976785Y-63853571D01*
X133619642Y-63853571D01*
X133476785Y-63782142D01*
X133405357Y-63710714D01*
X135191071Y-62353571D02*
X135333928Y-62353571D01*
X135476785Y-62425000D01*
X135548214Y-62496428D01*
X135619642Y-62639285D01*
X135691071Y-62925000D01*
X135691071Y-63282142D01*
X135619642Y-63567857D01*
X135548214Y-63710714D01*
X135476785Y-63782142D01*
X135333928Y-63853571D01*
X135191071Y-63853571D01*
X135048214Y-63782142D01*
X134976785Y-63710714D01*
X134905357Y-63567857D01*
X134833928Y-63282142D01*
X134833928Y-62925000D01*
X134905357Y-62639285D01*
X134976785Y-62496428D01*
X135048214Y-62425000D01*
X135191071Y-62353571D01*
X137476785Y-63853571D02*
X137476785Y-62853571D01*
X137905357Y-63639285D01*
X138333928Y-62853571D01*
X138333928Y-63853571D01*
X139048214Y-63853571D02*
X139048214Y-62853571D01*
X139476785Y-63639285D01*
X139905357Y-62853571D01*
X139905357Y-63853571D01*
D12*
X195000000Y-64500000D02*
X195000000Y-64388580D01*
X70525000Y-64500000D02*
X70525000Y-64388580D01*
X195000000Y-64975000D02*
X70525000Y-64975000D01*
X195000000Y-64975000D02*
X70525000Y-64975000D01*
X195000000Y-64975000D02*
X193873496Y-64388579D01*
X195000000Y-64975000D02*
X193873496Y-65561421D01*
X70525000Y-64975000D02*
X71651504Y-65561421D01*
X70525000Y-64975000D02*
X71651504Y-64388579D01*
D10*
D11*
X126676384Y-149221908D02*
X125830359Y-149084301D01*
X126253372Y-149153105D02*
X126494183Y-147672561D01*
X126318778Y-147861133D01*
X126154839Y-147979202D01*
X126002368Y-148026770D01*
X127458278Y-147974106D02*
X127540247Y-147915071D01*
X127692719Y-147867503D01*
X128045229Y-147924839D01*
X128174766Y-148018276D01*
X128233801Y-148100245D01*
X128281369Y-148252717D01*
X128258434Y-148393721D01*
X128153531Y-148593760D01*
X127169899Y-149302178D01*
X128086426Y-149451252D01*
X129596275Y-148177118D02*
X129314267Y-148131249D01*
X129161795Y-148178817D01*
X129079826Y-148237852D01*
X128904420Y-148426424D01*
X128788049Y-148696965D01*
X128696312Y-149260981D01*
X128743879Y-149413453D01*
X128802914Y-149495422D01*
X128932451Y-149588859D01*
X129214460Y-149634727D01*
X129366931Y-149587160D01*
X129448900Y-149528125D01*
X129542337Y-149398588D01*
X129599673Y-149046077D01*
X129552105Y-148893606D01*
X129493070Y-148811637D01*
X129363533Y-148718200D01*
X129081525Y-148672331D01*
X128929054Y-148719899D01*
X128847084Y-148778934D01*
X128753648Y-148908471D01*
X130212956Y-149724766D02*
X130201489Y-149795268D01*
X130108052Y-149924805D01*
X130026083Y-149983840D01*
X131611530Y-150024612D02*
X130765505Y-149887006D01*
X131188518Y-149955809D02*
X131429329Y-148475265D01*
X131253923Y-148663837D01*
X131089985Y-148781907D01*
X130937514Y-148829475D01*
X132345856Y-148624339D02*
X133262383Y-148773413D01*
X132677131Y-149257159D01*
X132888637Y-149291561D01*
X133018174Y-149384997D01*
X133077209Y-149466966D01*
X133124777Y-149619438D01*
X133067441Y-149971948D01*
X132974004Y-150101485D01*
X132892035Y-150160520D01*
X132739564Y-150208088D01*
X132316551Y-150139284D01*
X132187014Y-150045848D01*
X132127979Y-149963879D01*
X134531421Y-148979822D02*
X134249413Y-148933954D01*
X134096941Y-148981521D01*
X134014972Y-149040556D01*
X133839566Y-149229128D01*
X133723195Y-149499669D01*
X133631458Y-150063686D01*
X133679025Y-150216157D01*
X133738060Y-150298126D01*
X133867597Y-150391563D01*
X134149605Y-150437432D01*
X134302077Y-150389864D01*
X134384046Y-150330829D01*
X134477483Y-150201292D01*
X134534819Y-149848782D01*
X134487251Y-149696311D01*
X134428216Y-149614341D01*
X134298679Y-149520905D01*
X134016671Y-149475036D01*
X133864199Y-149522604D01*
X133782230Y-149581638D01*
X133688794Y-149711175D01*
X135841656Y-150712645D02*
X134995631Y-150575038D01*
X135418643Y-150643842D02*
X135659454Y-149163298D01*
X135484049Y-149351870D01*
X135320110Y-149469939D01*
X135167639Y-149517507D01*
X137604208Y-150999325D02*
X137764749Y-150012296D01*
X138061622Y-150856622D01*
X138610774Y-150149902D01*
X138450233Y-151136931D01*
X139155254Y-151251603D02*
X139315794Y-150264574D01*
X139612668Y-151108900D01*
X140161819Y-150402181D01*
X140001279Y-151389210D01*
D12*
X70444729Y-141693515D02*
X70426891Y-141803187D01*
X194944730Y-161943515D02*
X194926892Y-162053187D01*
X70521035Y-141224373D02*
X195021036Y-161474373D01*
X70521035Y-141224373D02*
X195021036Y-161474373D01*
X70521035Y-141224373D02*
X71538783Y-141984037D01*
X70521035Y-141224373D02*
X71727072Y-140826409D01*
X195021036Y-161474373D02*
X194003288Y-160714709D01*
X195021036Y-161474373D02*
X193814999Y-161872337D01*
D13*
%TO.P,SW6,1,1*%
%TO.N,col1*%
X100535000Y-113995000D03*
X105615000Y-113995000D03*
%TO.P,SW6,2,2*%
%TO.N,Net-(D6-Pad2)*%
X99265000Y-116535000D03*
X106885000Y-116535000D03*
%TD*%
%TO.P,SW13,1,1*%
%TO.N,col3*%
X143765000Y-114020000D03*
X138685000Y-114020000D03*
%TO.P,SW13,2,2*%
%TO.N,Net-(SW13-Pad2)*%
X145035000Y-116560000D03*
X137415000Y-116560000D03*
%TD*%
D14*
%TO.P,D1,1,K*%
%TO.N,row0*%
X84751934Y-94900109D03*
D15*
X85575000Y-94900000D03*
D16*
X86475000Y-94900000D03*
D15*
%TO.P,D1,2,A*%
%TO.N,Net-(SW1-Pad2)*%
X80375000Y-94900000D03*
D16*
X79475000Y-94900000D03*
D14*
X81201934Y-94900109D03*
%TD*%
D13*
%TO.P,SW9,1,1*%
%TO.N,col2*%
X119612235Y-109341441D03*
X124692235Y-109341441D03*
%TO.P,SW9,2,2*%
%TO.N,Net-(SW9-Pad2)*%
X125962235Y-111881441D03*
X118342235Y-111881441D03*
%TD*%
%TO.P,SW11,1,1*%
%TO.N,col3*%
X143715000Y-75920000D03*
X138635000Y-75920000D03*
%TO.P,SW11,2,2*%
%TO.N,Net-(SW11-Pad2)*%
X137365000Y-78460000D03*
X144985000Y-78460000D03*
%TD*%
D15*
%TO.P,D11,1,K*%
%TO.N,row0*%
X142700000Y-85675000D03*
D16*
X143600000Y-85675000D03*
D14*
X141876934Y-85675109D03*
D16*
%TO.P,D11,2,A*%
%TO.N,Net-(SW11-Pad2)*%
X136600000Y-85675000D03*
D14*
X138326934Y-85675109D03*
D15*
X137500000Y-85675000D03*
%TD*%
D13*
%TO.P,SW4,1,1*%
%TO.N,col1*%
X100525000Y-75915000D03*
X105605000Y-75915000D03*
%TO.P,SW4,2,2*%
%TO.N,Net-(SW4-Pad2)*%
X99255000Y-78455000D03*
X106875000Y-78455000D03*
%TD*%
%TO.P,SW8,1,1*%
%TO.N,col2*%
X124690000Y-90295000D03*
X119610000Y-90295000D03*
%TO.P,SW8,2,2*%
%TO.N,Net-(SW8-Pad2)*%
X125960000Y-92835000D03*
X118340000Y-92835000D03*
%TD*%
%TO.P,SW14,1,1*%
%TO.N,col3*%
X161779583Y-137208522D03*
X156776760Y-136326389D03*
%TO.P,SW14,2,2*%
%TO.N,Net-(SW14-Pad2)*%
X155084987Y-138607268D03*
X162589223Y-139930467D03*
%TD*%
%TO.P,SW10,1,1*%
%TO.N,col2*%
X140015000Y-134845000D03*
X134935000Y-134845000D03*
%TO.P,SW10,2,2*%
%TO.N,Net-(SW10-Pad2)*%
X141285000Y-137385000D03*
X133665000Y-137385000D03*
%TD*%
D15*
%TO.P,D10,1,K*%
%TO.N,row3*%
X139050000Y-144650000D03*
D16*
X139950000Y-144650000D03*
D14*
X138226934Y-144650109D03*
D15*
%TO.P,D10,2,A*%
%TO.N,Net-(SW10-Pad2)*%
X133850000Y-144650000D03*
D16*
X132950000Y-144650000D03*
D14*
X134676934Y-144650109D03*
%TD*%
D15*
%TO.P,D2,1,K*%
%TO.N,row1*%
X85550000Y-113575000D03*
D16*
X86450000Y-113575000D03*
D14*
X84726934Y-113575109D03*
%TO.P,D2,2,A*%
%TO.N,Net-(SW2-Pad2)*%
X81176934Y-113575109D03*
D16*
X79450000Y-113575000D03*
D15*
X80350000Y-113575000D03*
%TD*%
D13*
%TO.P,SW2,1,1*%
%TO.N,col0*%
X86565000Y-104445000D03*
X81485000Y-104445000D03*
%TO.P,SW2,2,2*%
%TO.N,Net-(SW2-Pad2)*%
X80215000Y-106985000D03*
X87835000Y-106985000D03*
%TD*%
D16*
%TO.P,D4,1,K*%
%TO.N,row0*%
X105575000Y-85600000D03*
D14*
X103851934Y-85600109D03*
D15*
X104675000Y-85600000D03*
%TO.P,D4,2,A*%
%TO.N,Net-(SW4-Pad2)*%
X99475000Y-85600000D03*
D14*
X100301934Y-85600109D03*
D16*
X98575000Y-85600000D03*
%TD*%
D17*
%TO.P,,*%
%TO.N,*%
X190175000Y-156025000D03*
%TD*%
D13*
%TO.P,SW1,1,1*%
%TO.N,col0*%
X86565000Y-85395000D03*
X81485000Y-85395000D03*
%TO.P,SW1,2,2*%
%TO.N,Net-(SW1-Pad2)*%
X87835000Y-87935000D03*
X80215000Y-87935000D03*
%TD*%
D18*
%TO.P,U2,1,TX*%
%TO.N,raw*%
X176135000Y-75595000D03*
%TO.P,U2,2,RX*%
%TO.N,GND*%
X176135000Y-78135000D03*
%TO.P,U2,3,GND*%
%TO.N,reset*%
X176135000Y-80675000D03*
%TO.P,U2,4,GND*%
%TO.N,unconnected-(U2-Pad4)*%
X176135000Y-83215000D03*
%TO.P,U2,5,SDA*%
%TO.N,unconnected-(U2-Pad5)*%
X176135000Y-85755000D03*
%TO.P,U2,6,SCL*%
%TO.N,col0*%
X176135000Y-88295000D03*
%TO.P,U2,7,D4*%
%TO.N,col1*%
X176135000Y-90835000D03*
%TO.P,U2,8,C6*%
%TO.N,col2*%
X176135000Y-93375000D03*
%TO.P,U2,9,D7*%
%TO.N,col3*%
X176135000Y-95915000D03*
%TO.P,U2,10,E6*%
%TO.N,col4*%
X176135000Y-98455000D03*
%TO.P,U2,11,B4*%
%TO.N,unconnected-(U2-Pad11)*%
X176135000Y-100995000D03*
%TO.P,U2,12,B5*%
%TO.N,unconnected-(U2-Pad12)*%
X176135000Y-103535000D03*
%TO.P,U2,13,B6*%
%TO.N,unconnected-(U2-Pad13)*%
X191375000Y-103535000D03*
%TO.P,U2,14,B2*%
%TO.N,unconnected-(U2-Pad14)*%
X191375000Y-100995000D03*
%TO.P,U2,15,B3*%
%TO.N,row3*%
X191375000Y-98455000D03*
%TO.P,U2,16,B1*%
%TO.N,row2*%
X191375000Y-95915000D03*
%TO.P,U2,17,F7*%
%TO.N,row1*%
X191375000Y-93375000D03*
%TO.P,U2,18,F6*%
%TO.N,row0*%
X191375000Y-90835000D03*
%TO.P,U2,19,F5*%
%TO.N,unconnected-(U2-Pad19)*%
X191375000Y-88295000D03*
%TO.P,U2,20,F4*%
%TO.N,unconnected-(U2-Pad20)*%
X191375000Y-85755000D03*
%TO.P,U2,21,VCC*%
%TO.N,GND*%
X191375000Y-83215000D03*
%TO.P,U2,22,RST*%
X191375000Y-80675000D03*
%TO.P,U2,23,GND*%
%TO.N,data*%
X191375000Y-78135000D03*
%TO.P,U2,24,RAW*%
%TO.N,unconnected-(U2-Pad24)*%
X191375000Y-75595000D03*
%TD*%
D16*
%TO.P,D3,1,K*%
%TO.N,row2*%
X86575000Y-133150000D03*
D14*
X84851934Y-133150109D03*
D15*
X85675000Y-133150000D03*
%TO.P,D3,2,A*%
%TO.N,Net-(SW3-Pad2)*%
X80475000Y-133150000D03*
D16*
X79575000Y-133150000D03*
D14*
X81301934Y-133150109D03*
%TD*%
D17*
%TO.P,,*%
%TO.N,*%
X98450000Y-140650000D03*
%TD*%
D16*
%TO.P,D15,1,K*%
%TO.N,row0*%
X162825000Y-87125000D03*
D14*
X161101934Y-87125109D03*
D15*
X161925000Y-87125000D03*
D16*
%TO.P,D15,2,A*%
%TO.N,Net-(SW15-Pad2)*%
X155825000Y-87125000D03*
D14*
X157551934Y-87125109D03*
D15*
X156725000Y-87125000D03*
%TD*%
D19*
%TO.P,J1,A*%
%TO.N,raw*%
X184325000Y-123275000D03*
X184325000Y-118850000D03*
D20*
%TO.P,J1,B*%
%TO.N,data*%
X191775000Y-118875000D03*
X191775000Y-123275000D03*
%TO.P,J1,C*%
%TO.N,GND*%
X188775000Y-123275000D03*
X188775000Y-118875000D03*
D19*
%TO.P,J1,D*%
%TO.N,raw*%
X184325000Y-118850000D03*
X184325000Y-123275000D03*
%TD*%
D17*
%TO.P,,*%
%TO.N,*%
X167925000Y-68650000D03*
%TD*%
D15*
%TO.P,D8,1,K*%
%TO.N,row1*%
X123650000Y-100150000D03*
D14*
X122826934Y-100150109D03*
D16*
X124550000Y-100150000D03*
D14*
%TO.P,D8,2,A*%
%TO.N,Net-(SW8-Pad2)*%
X119276934Y-100150109D03*
D15*
X118450000Y-100150000D03*
D16*
X117550000Y-100150000D03*
%TD*%
D13*
%TO.P,SW18,1,1*%
%TO.N,col4*%
X178150643Y-141632630D03*
X182924282Y-143370092D03*
%TO.P,SW18,2,2*%
%TO.N,Net-(SW18-Pad2)*%
X176088502Y-143585084D03*
X183248960Y-146191277D03*
%TD*%
D15*
%TO.P,D6,1,K*%
%TO.N,row2*%
X104625000Y-123700000D03*
D16*
X105525000Y-123700000D03*
D14*
X103801934Y-123700109D03*
%TO.P,D6,2,A*%
%TO.N,Net-(D6-Pad2)*%
X100251934Y-123700109D03*
D15*
X99425000Y-123700000D03*
D16*
X98525000Y-123700000D03*
%TD*%
D13*
%TO.P,SW15,1,1*%
%TO.N,col4*%
X162815000Y-77440000D03*
X157735000Y-77440000D03*
%TO.P,SW15,2,2*%
%TO.N,Net-(SW15-Pad2)*%
X156465000Y-79980000D03*
X164085000Y-79980000D03*
%TD*%
%TO.P,SW17,1,1*%
%TO.N,col4*%
X162815000Y-115570000D03*
X157735000Y-115570000D03*
%TO.P,SW17,2,2*%
%TO.N,Net-(SW17-Pad2)*%
X164085000Y-118110000D03*
X156465000Y-118110000D03*
%TD*%
D14*
%TO.P,D7,1,K*%
%TO.N,row0*%
X122876934Y-80800109D03*
D16*
X124600000Y-80800000D03*
D15*
X123700000Y-80800000D03*
%TO.P,D7,2,A*%
%TO.N,Net-(SW7-Pad2)*%
X118500000Y-80800000D03*
D14*
X119326934Y-80800109D03*
D16*
X117600000Y-80800000D03*
%TD*%
D14*
%TO.P,D16,1,K*%
%TO.N,row1*%
X161151934Y-106100109D03*
D16*
X162875000Y-106100000D03*
D15*
X161975000Y-106100000D03*
D16*
%TO.P,D16,2,A*%
%TO.N,Net-(SW16-Pad2)*%
X155875000Y-106100000D03*
D15*
X156775000Y-106100000D03*
D14*
X157601934Y-106100109D03*
%TD*%
D16*
%TO.P,D5,1,K*%
%TO.N,row1*%
X105600000Y-104725000D03*
D14*
X103876934Y-104725109D03*
D15*
X104700000Y-104725000D03*
D16*
%TO.P,D5,2,A*%
%TO.N,Net-(SW5-Pad2)*%
X98600000Y-104725000D03*
D14*
X100326934Y-104725109D03*
D15*
X99500000Y-104725000D03*
%TD*%
D13*
%TO.P,SW3,1,1*%
%TO.N,col0*%
X86565000Y-123520000D03*
X81485000Y-123520000D03*
%TO.P,SW3,2,2*%
%TO.N,Net-(SW3-Pad2)*%
X80215000Y-126060000D03*
X87835000Y-126060000D03*
%TD*%
%TO.P,SW5,1,1*%
%TO.N,col1*%
X100535000Y-94970000D03*
X105615000Y-94970000D03*
%TO.P,SW5,2,2*%
%TO.N,Net-(SW5-Pad2)*%
X99265000Y-97510000D03*
X106885000Y-97510000D03*
%TD*%
%TO.P,SW12,1,1*%
%TO.N,col3*%
X138660000Y-94970000D03*
X143740000Y-94970000D03*
%TO.P,SW12,2,2*%
%TO.N,Net-(SW12-Pad2)*%
X145010000Y-97510000D03*
X137390000Y-97510000D03*
%TD*%
%TO.P,SW7,1,1*%
%TO.N,col2*%
X124665000Y-71245000D03*
X119585000Y-71245000D03*
%TO.P,SW7,2,2*%
%TO.N,Net-(SW7-Pad2)*%
X118315000Y-73785000D03*
X125935000Y-73785000D03*
%TD*%
%TO.P,SW16,1,1*%
%TO.N,col4*%
X157735000Y-96520000D03*
X162815000Y-96520000D03*
%TO.P,SW16,2,2*%
%TO.N,Net-(SW16-Pad2)*%
X156465000Y-99060000D03*
X164085000Y-99060000D03*
%TD*%
D16*
%TO.P,D13,1,K*%
%TO.N,row2*%
X143650000Y-123675000D03*
D14*
X141926934Y-123675109D03*
D15*
X142750000Y-123675000D03*
%TO.P,D13,2,A*%
%TO.N,Net-(SW13-Pad2)*%
X137550000Y-123675000D03*
D14*
X138376934Y-123675109D03*
D16*
X136650000Y-123675000D03*
%TD*%
D18*
%TO.P,U1,1,TX*%
%TO.N,unconnected-(U1-Pad1)*%
X174210000Y-74295000D03*
%TO.P,U1,2,RX*%
%TO.N,data*%
X174210000Y-76835000D03*
%TO.P,U1,3,GND*%
%TO.N,GND*%
X174210000Y-79375000D03*
%TO.P,U1,4,GND*%
X174210000Y-81915000D03*
%TO.P,U1,5,SDA*%
%TO.N,unconnected-(U1-Pad5)*%
X174210000Y-84455000D03*
%TO.P,U1,6,SCL*%
%TO.N,unconnected-(U1-Pad6)*%
X174210000Y-86995000D03*
%TO.P,U1,7,D4*%
%TO.N,row0*%
X174210000Y-89535000D03*
%TO.P,U1,8,C6*%
%TO.N,row1*%
X174210000Y-92075000D03*
%TO.P,U1,9,D7*%
%TO.N,row2*%
X174210000Y-94615000D03*
%TO.P,U1,10,E6*%
%TO.N,row3*%
X174210000Y-97155000D03*
%TO.P,U1,11,B4*%
%TO.N,unconnected-(U1-Pad11)*%
X174210000Y-99695000D03*
%TO.P,U1,12,B5*%
%TO.N,unconnected-(U1-Pad12)*%
X174210000Y-102235000D03*
%TO.P,U1,13,B6*%
%TO.N,unconnected-(U1-Pad13)*%
X189450000Y-102235000D03*
%TO.P,U1,14,B2*%
%TO.N,unconnected-(U1-Pad14)*%
X189450000Y-99695000D03*
%TO.P,U1,15,B3*%
%TO.N,col4*%
X189450000Y-97155000D03*
%TO.P,U1,16,B1*%
%TO.N,col3*%
X189450000Y-94615000D03*
%TO.P,U1,17,F7*%
%TO.N,col2*%
X189450000Y-92075000D03*
%TO.P,U1,18,F6*%
%TO.N,col1*%
X189450000Y-89535000D03*
%TO.P,U1,19,F5*%
%TO.N,col0*%
X189450000Y-86995000D03*
%TO.P,U1,20,F4*%
%TO.N,unconnected-(U1-Pad20)*%
X189450000Y-84455000D03*
%TO.P,U1,21,VCC*%
%TO.N,unconnected-(U1-Pad21)*%
X189450000Y-81915000D03*
%TO.P,U1,22,RST*%
%TO.N,reset*%
X189450000Y-79375000D03*
%TO.P,U1,23,GND*%
%TO.N,GND*%
X189450000Y-76835000D03*
%TO.P,U1,24,RAW*%
%TO.N,raw*%
X189450000Y-74295000D03*
%TD*%
D16*
%TO.P,D14,1,K*%
%TO.N,row3*%
X160825000Y-145600000D03*
D14*
X159101934Y-145600109D03*
D15*
X159925000Y-145600000D03*
D16*
%TO.P,D14,2,A*%
%TO.N,Net-(SW14-Pad2)*%
X153825000Y-145600000D03*
D14*
X155551934Y-145600109D03*
D15*
X154725000Y-145600000D03*
%TD*%
D17*
%TO.P,,*%
%TO.N,*%
X75475000Y-69750000D03*
%TD*%
D14*
%TO.P,D9,1,K*%
%TO.N,row2*%
X122901934Y-118875109D03*
D16*
X124625000Y-118875000D03*
D15*
X123725000Y-118875000D03*
D16*
%TO.P,D9,2,A*%
%TO.N,Net-(SW9-Pad2)*%
X117625000Y-118875000D03*
D14*
X119351934Y-118875109D03*
D15*
X118525000Y-118875000D03*
%TD*%
D14*
%TO.P,D17,1,K*%
%TO.N,row2*%
X161051934Y-125050109D03*
D15*
X161875000Y-125050000D03*
D16*
X162775000Y-125050000D03*
D15*
%TO.P,D17,2,A*%
%TO.N,Net-(SW17-Pad2)*%
X156675000Y-125050000D03*
D16*
X155775000Y-125050000D03*
D14*
X157501934Y-125050109D03*
%TD*%
D16*
%TO.P,D18,1,K*%
%TO.N,row3*%
X181800000Y-151700000D03*
D14*
X180076934Y-151700109D03*
D15*
X180900000Y-151700000D03*
%TO.P,D18,2,A*%
%TO.N,Net-(SW18-Pad2)*%
X175700000Y-151700000D03*
D14*
X176526934Y-151700109D03*
D16*
X174800000Y-151700000D03*
%TD*%
%TO.P,D12,1,K*%
%TO.N,row1*%
X143700000Y-104425000D03*
D15*
X142800000Y-104425000D03*
D14*
X141976934Y-104425109D03*
%TO.P,D12,2,A*%
%TO.N,Net-(SW12-Pad2)*%
X138426934Y-104425109D03*
D16*
X136700000Y-104425000D03*
D15*
X137600000Y-104425000D03*
%TD*%
D21*
%TO.N,row0*%
X179385000Y-90835000D03*
%TO.N,row1*%
X179350000Y-93375000D03*
%TO.N,row2*%
X179340000Y-95915000D03*
%TO.N,row3*%
X179405000Y-98455000D03*
%TO.N,data*%
X187717588Y-76835000D03*
%TO.N,GND*%
X186839821Y-78135179D03*
%TO.N,col0*%
X108050000Y-85900000D03*
X169400000Y-89650000D03*
%TO.N,col1*%
X169325000Y-90825000D03*
X125350000Y-87375000D03*
%TO.N,col2*%
X144800000Y-92300000D03*
X169325000Y-92300000D03*
%TO.N,col3*%
X163625000Y-93600000D03*
X169204312Y-95879312D03*
%TD*%
D22*
%TO.N,row0*%
X179385000Y-90835000D02*
X178085000Y-89535000D01*
X105125000Y-85600000D02*
X107500000Y-83225000D01*
X128175000Y-80800000D02*
X135300000Y-87925000D01*
X94275000Y-87925000D02*
X101750000Y-87925000D01*
X87300000Y-94900000D02*
X94275000Y-87925000D01*
X135300000Y-87925000D02*
X139172957Y-87925000D01*
X107500000Y-83225000D02*
X119997957Y-83225000D01*
X171800000Y-87125000D02*
X174210000Y-89535000D01*
X101750000Y-87925000D02*
X103398066Y-86276934D01*
X162375000Y-87125000D02*
X171800000Y-87125000D01*
X143150000Y-85675000D02*
X151025000Y-85675000D01*
X124150000Y-80800000D02*
X128175000Y-80800000D01*
X86025000Y-94900000D02*
X87300000Y-94900000D01*
X119997957Y-83225000D02*
X122423066Y-80799891D01*
X159097957Y-88675000D02*
X160648066Y-87124891D01*
X103398066Y-86276934D02*
X103398066Y-85599891D01*
D23*
X178085000Y-89535000D02*
X174210000Y-89535000D01*
D22*
X154025000Y-88675000D02*
X159097957Y-88675000D01*
X151025000Y-85675000D02*
X154025000Y-88675000D01*
X139172957Y-87925000D02*
X141423066Y-85674891D01*
%TO.N,Net-(SW1-Pad2)*%
X80215000Y-87935000D02*
X81840000Y-87935000D01*
X80215000Y-87935000D02*
X80725000Y-88445000D01*
X86235000Y-87935000D02*
X87835000Y-87935000D01*
X85575000Y-87275000D02*
X86235000Y-87935000D01*
X81840000Y-87935000D02*
X82500000Y-87275000D01*
X82500000Y-87275000D02*
X85575000Y-87275000D01*
X80725000Y-88445000D02*
X80725000Y-94650000D01*
%TO.N,row1*%
X162425000Y-106100000D02*
X163725000Y-106100000D01*
X103423066Y-105226934D02*
X103423066Y-104724891D01*
X124100000Y-100150000D02*
X129075000Y-100150000D01*
X158222957Y-108575000D02*
X160698066Y-106099891D01*
X154300000Y-108575000D02*
X158222957Y-108575000D01*
X163725000Y-106100000D02*
X168775000Y-101050000D01*
X120247957Y-102275000D02*
X122373066Y-100149891D01*
D23*
X178050000Y-92075000D02*
X174210000Y-92075000D01*
D22*
X105150000Y-104725000D02*
X107600000Y-102275000D01*
X129075000Y-100150000D02*
X135850000Y-106925000D01*
X107600000Y-102275000D02*
X120247957Y-102275000D01*
X143250000Y-104425000D02*
X150150000Y-104425000D01*
X168775000Y-97510000D02*
X174210000Y-92075000D01*
X94500000Y-106875000D02*
X101775000Y-106875000D01*
X135850000Y-106925000D02*
X139022957Y-106925000D01*
X101775000Y-106875000D02*
X103423066Y-105226934D01*
X87800000Y-113575000D02*
X94500000Y-106875000D01*
X139022957Y-106925000D02*
X141523066Y-104424891D01*
X150150000Y-104425000D02*
X154300000Y-108575000D01*
X86000000Y-113575000D02*
X87800000Y-113575000D01*
X179350000Y-93375000D02*
X178050000Y-92075000D01*
X168775000Y-101050000D02*
X168775000Y-97510000D01*
%TO.N,Net-(SW2-Pad2)*%
X80230000Y-107075000D02*
X81855000Y-107075000D01*
X85590000Y-106415000D02*
X86250000Y-107075000D01*
X86250000Y-107075000D02*
X87850000Y-107075000D01*
X80240000Y-107065000D02*
X80725967Y-107550967D01*
X82515000Y-106415000D02*
X85590000Y-106415000D01*
X81855000Y-107075000D02*
X82515000Y-106415000D01*
X80725967Y-113755967D02*
X80750000Y-113780000D01*
X80725967Y-107550967D02*
X80725967Y-113755967D01*
D23*
%TO.N,row2*%
X178040000Y-94615000D02*
X174210000Y-94615000D01*
D22*
X165075000Y-125050000D02*
X162325000Y-125050000D01*
X151500000Y-123675000D02*
X155600000Y-127775000D01*
X101775000Y-126075000D02*
X103348066Y-124501934D01*
X107500000Y-121275000D02*
X120047957Y-121275000D01*
X170525000Y-119600000D02*
X165075000Y-125050000D01*
X157872957Y-127775000D02*
X160598066Y-125049891D01*
X174210000Y-94615000D02*
X170525000Y-98300000D01*
X143200000Y-123675000D02*
X151500000Y-123675000D01*
X155600000Y-127775000D02*
X157872957Y-127775000D01*
X94675000Y-126075000D02*
X101775000Y-126075000D01*
X128975000Y-118875000D02*
X136175000Y-126075000D01*
X105075000Y-123700000D02*
X107500000Y-121275000D01*
X170525000Y-98300000D02*
X170525000Y-119600000D01*
X179340000Y-95915000D02*
X178040000Y-94615000D01*
X124175000Y-118875000D02*
X128975000Y-118875000D01*
X136175000Y-126075000D02*
X139072957Y-126075000D01*
X103348066Y-124501934D02*
X103348066Y-123699891D01*
X86125000Y-133150000D02*
X87600000Y-133150000D01*
X87600000Y-133150000D02*
X94675000Y-126075000D01*
X120047957Y-121275000D02*
X122448066Y-118874891D01*
X139072957Y-126075000D02*
X141473066Y-123674891D01*
%TO.N,Net-(SW3-Pad2)*%
X80775000Y-126675000D02*
X80775000Y-133025000D01*
X80230000Y-126075000D02*
X81855000Y-126075000D01*
X81855000Y-126075000D02*
X82515000Y-125415000D01*
X85590000Y-125415000D02*
X86250000Y-126075000D01*
X86250000Y-126075000D02*
X87850000Y-126075000D01*
X80265000Y-126165000D02*
X80775000Y-126675000D01*
X82515000Y-125415000D02*
X85590000Y-125415000D01*
%TO.N,Net-(SW4-Pad2)*%
X99800000Y-79000000D02*
X99800000Y-85350967D01*
X105300000Y-78525000D02*
X106900000Y-78525000D01*
X99280000Y-78525000D02*
X100905000Y-78525000D01*
X100905000Y-78525000D02*
X101565000Y-77865000D01*
X101565000Y-77865000D02*
X104640000Y-77865000D01*
X104640000Y-77865000D02*
X105300000Y-78525000D01*
X99290000Y-78490000D02*
X99800000Y-79000000D01*
%TO.N,Net-(SW5-Pad2)*%
X99850000Y-98150000D02*
X99850000Y-104500000D01*
X99230000Y-97550000D02*
X100855000Y-97550000D01*
X100855000Y-97550000D02*
X101515000Y-96890000D01*
X99340000Y-97640000D02*
X99850000Y-98150000D01*
X105250000Y-97550000D02*
X106850000Y-97550000D01*
X101515000Y-96890000D02*
X104590000Y-96890000D01*
X104590000Y-96890000D02*
X105250000Y-97550000D01*
%TO.N,Net-(D6-Pad2)*%
X99825000Y-123599033D02*
X99825967Y-123600000D01*
X100905000Y-116575000D02*
X101565000Y-115915000D01*
X99825000Y-117150000D02*
X99825000Y-123599033D01*
X104640000Y-115915000D02*
X105300000Y-116575000D01*
X99280000Y-116575000D02*
X100905000Y-116575000D01*
X105300000Y-116575000D02*
X106900000Y-116575000D01*
X99315000Y-116640000D02*
X99825000Y-117150000D01*
X101565000Y-115915000D02*
X104640000Y-115915000D01*
%TO.N,Net-(SW7-Pad2)*%
X118875000Y-74450000D02*
X118875000Y-80800000D01*
X124325000Y-73850000D02*
X125925000Y-73850000D01*
X120590000Y-73190000D02*
X123665000Y-73190000D01*
X123665000Y-73190000D02*
X124325000Y-73850000D01*
X119930000Y-73850000D02*
X120590000Y-73190000D01*
X118305000Y-73850000D02*
X119930000Y-73850000D01*
X118365000Y-73940000D02*
X118875000Y-74450000D01*
%TO.N,Net-(SW8-Pad2)*%
X118305000Y-92850000D02*
X119930000Y-92850000D01*
X124325000Y-92850000D02*
X125925000Y-92850000D01*
X118875000Y-93475000D02*
X118875000Y-99950000D01*
X118365000Y-92965000D02*
X118875000Y-93475000D01*
X123665000Y-92190000D02*
X124325000Y-92850000D01*
X119930000Y-92850000D02*
X120590000Y-92190000D01*
X120590000Y-92190000D02*
X123665000Y-92190000D01*
%TO.N,Net-(SW9-Pad2)*%
X119980000Y-111925000D02*
X120640000Y-111265000D01*
X118415000Y-112015000D02*
X118925000Y-112525000D01*
X120640000Y-111265000D02*
X123715000Y-111265000D01*
X118925000Y-112525000D02*
X118925000Y-118850000D01*
X123715000Y-111265000D02*
X124375000Y-111925000D01*
X118355000Y-111925000D02*
X119980000Y-111925000D01*
X124375000Y-111925000D02*
X125975000Y-111925000D01*
%TO.N,row3*%
X174210000Y-97155000D02*
X171800000Y-99565000D01*
X160375000Y-145600000D02*
X166025000Y-145600000D01*
X139500000Y-144650000D02*
X149475000Y-144650000D01*
X152775000Y-147950000D02*
X156297957Y-147950000D01*
X156297957Y-147950000D02*
X158648066Y-145599891D01*
X166200000Y-145775000D02*
X174225000Y-153800000D01*
X179405000Y-98455000D02*
X178105000Y-97155000D01*
X166025000Y-145600000D02*
X166200000Y-145775000D01*
X171800000Y-139850000D02*
X166050000Y-145600000D01*
X177522957Y-153800000D02*
X179623066Y-151699891D01*
X174225000Y-153800000D02*
X177522957Y-153800000D01*
X171800000Y-99565000D02*
X171800000Y-139850000D01*
D23*
X178105000Y-97155000D02*
X174210000Y-97155000D01*
D22*
X149475000Y-144650000D02*
X152775000Y-147950000D01*
%TO.N,Net-(SW10-Pad2)*%
X139625000Y-137425000D02*
X141225000Y-137425000D01*
X138965000Y-136765000D02*
X139625000Y-137425000D01*
X133605000Y-137425000D02*
X135230000Y-137425000D01*
X135230000Y-137425000D02*
X135890000Y-136765000D01*
X134175000Y-138000000D02*
X134175000Y-144500000D01*
X135890000Y-136765000D02*
X138965000Y-136765000D01*
X133665000Y-137490000D02*
X134175000Y-138000000D01*
%TO.N,Net-(SW11-Pad2)*%
X143325000Y-78500000D02*
X144925000Y-78500000D01*
X137305000Y-78500000D02*
X138930000Y-78500000D01*
X137825000Y-79100000D02*
X137825000Y-85450000D01*
X137315000Y-78590000D02*
X137825000Y-79100000D01*
X139590000Y-77840000D02*
X142665000Y-77840000D01*
X142665000Y-77840000D02*
X143325000Y-78500000D01*
X138930000Y-78500000D02*
X139590000Y-77840000D01*
%TO.N,Net-(SW12-Pad2)*%
X137925000Y-98150000D02*
X137925000Y-104500000D01*
X137330000Y-97525000D02*
X138955000Y-97525000D01*
X138955000Y-97525000D02*
X139615000Y-96865000D01*
X139615000Y-96865000D02*
X142690000Y-96865000D01*
X143350000Y-97525000D02*
X144950000Y-97525000D01*
X142690000Y-96865000D02*
X143350000Y-97525000D01*
X137415000Y-97640000D02*
X137925000Y-98150000D01*
%TO.N,Net-(SW13-Pad2)*%
X137440000Y-116640000D02*
X137950000Y-117150000D01*
X142740000Y-115940000D02*
X143400000Y-116600000D01*
X143400000Y-116600000D02*
X145000000Y-116600000D01*
X139005000Y-116600000D02*
X139665000Y-115940000D01*
X137380000Y-116600000D02*
X139005000Y-116600000D01*
X137950000Y-117150000D02*
X137950000Y-123475000D01*
X139665000Y-115940000D02*
X142740000Y-115940000D01*
%TO.N,Net-(SW14-Pad2)*%
X155084987Y-138607268D02*
X159632268Y-138607268D01*
X160955467Y-139930467D02*
X162589223Y-139930467D01*
X159632268Y-138607268D02*
X160955467Y-139930467D01*
X155084987Y-138607268D02*
X155084987Y-145534987D01*
%TO.N,Net-(SW15-Pad2)*%
X158105000Y-80000000D02*
X158765000Y-79340000D01*
X162500000Y-80000000D02*
X164100000Y-80000000D01*
X157000000Y-80550000D02*
X157000000Y-87075000D01*
X158765000Y-79340000D02*
X161840000Y-79340000D01*
X161840000Y-79340000D02*
X162500000Y-80000000D01*
X156480000Y-80000000D02*
X158105000Y-80000000D01*
X156490000Y-80040000D02*
X157000000Y-80550000D01*
%TO.N,Net-(SW16-Pad2)*%
X157050000Y-99725000D02*
X157050000Y-106000000D01*
X162450000Y-99075000D02*
X164050000Y-99075000D01*
X158715000Y-98415000D02*
X161790000Y-98415000D01*
X157050000Y-106000000D02*
X157075000Y-106025000D01*
X156540000Y-99215000D02*
X157050000Y-99725000D01*
X158055000Y-99075000D02*
X158715000Y-98415000D01*
X161790000Y-98415000D02*
X162450000Y-99075000D01*
X156430000Y-99075000D02*
X158055000Y-99075000D01*
%TO.N,Net-(SW17-Pad2)*%
X157000000Y-118750000D02*
X157000000Y-125225967D01*
X162475000Y-118175000D02*
X164075000Y-118175000D01*
X157000000Y-125225967D02*
X156975967Y-125250000D01*
X161815000Y-117515000D02*
X162475000Y-118175000D01*
X156490000Y-118240000D02*
X157000000Y-118750000D01*
X158740000Y-117515000D02*
X161815000Y-117515000D01*
X156455000Y-118175000D02*
X158080000Y-118175000D01*
X158080000Y-118175000D02*
X158740000Y-117515000D01*
%TO.N,Net-(SW18-Pad2)*%
X175775000Y-143898586D02*
X175775000Y-151222996D01*
X176088502Y-143585084D02*
X179560084Y-143585084D01*
X182166277Y-146191277D02*
X183248960Y-146191277D01*
X179560084Y-143585084D02*
X182166277Y-146191277D01*
X175775000Y-151222996D02*
X176088502Y-151536498D01*
X176088502Y-143585084D02*
X175775000Y-143898586D01*
%TO.N,data*%
X191775000Y-106125000D02*
X193425000Y-104475000D01*
X191775000Y-118875000D02*
X191775000Y-106125000D01*
X191775000Y-118875000D02*
X191775000Y-123275000D01*
D23*
X189017588Y-78135000D02*
X191375000Y-78135000D01*
D22*
X193425000Y-80185000D02*
X191375000Y-78135000D01*
X193425000Y-104475000D02*
X193425000Y-80185000D01*
D23*
X187717588Y-76835000D02*
X189017588Y-78135000D01*
D22*
%TO.N,GND*%
X186839821Y-78135179D02*
X186839821Y-116939821D01*
X186839821Y-116939821D02*
X188775000Y-118875000D01*
X188775000Y-118875000D02*
X188775000Y-123275000D01*
%TO.N,col0*%
X169400000Y-89650000D02*
X131125000Y-89650000D01*
X131125000Y-89650000D02*
X127375000Y-85900000D01*
X81485000Y-104445000D02*
X86565000Y-104445000D01*
X81485000Y-123520000D02*
X86565000Y-123520000D01*
X127375000Y-85900000D02*
X108050000Y-85900000D01*
X81485000Y-85395000D02*
X86565000Y-85395000D01*
%TO.N,col1*%
X126650000Y-87375000D02*
X125350000Y-87375000D01*
X130100000Y-90825000D02*
X126700000Y-87425000D01*
X100535000Y-94970000D02*
X105615000Y-94970000D01*
X100525000Y-75915000D02*
X105605000Y-75915000D01*
X169325000Y-90825000D02*
X130100000Y-90825000D01*
X126700000Y-87425000D02*
X126650000Y-87375000D01*
X100535000Y-113995000D02*
X105615000Y-113995000D01*
%TO.N,col2*%
X134935000Y-134845000D02*
X140015000Y-134845000D01*
X169325000Y-92300000D02*
X144800000Y-92300000D01*
X119585000Y-71245000D02*
X124665000Y-71245000D01*
X119610000Y-90295000D02*
X124690000Y-90295000D01*
X119612235Y-109341441D02*
X124692235Y-109341441D01*
%TO.N,col3*%
X160897450Y-136326389D02*
X161779583Y-137208522D01*
X168379312Y-95879312D02*
X166100000Y-93600000D01*
X138660000Y-94970000D02*
X143740000Y-94970000D01*
X138635000Y-75920000D02*
X143715000Y-75920000D01*
X169204312Y-95879312D02*
X168379312Y-95879312D01*
X166100000Y-93600000D02*
X163625000Y-93600000D01*
X138685000Y-114020000D02*
X143765000Y-114020000D01*
X156776760Y-136326389D02*
X160897450Y-136326389D01*
%TO.N,col4*%
X157735000Y-77440000D02*
X162815000Y-77440000D01*
X181186820Y-141632630D02*
X182924282Y-143370092D01*
X178150643Y-141632630D02*
X181186820Y-141632630D01*
X157735000Y-96520000D02*
X162815000Y-96520000D01*
X157735000Y-115570000D02*
X162815000Y-115570000D01*
%TO.N,raw*%
X184325000Y-81325000D02*
X178595000Y-75595000D01*
X184325000Y-118850000D02*
X184325000Y-81325000D01*
X184325000Y-118850000D02*
X184325000Y-123275000D01*
X178595000Y-75595000D02*
X176135000Y-75595000D01*
%TD*%
M02*
