%TF.GenerationSoftware,KiCad,Pcbnew,(6.0.8)*%
%TF.CreationDate,2023-01-31T20:26:13+04:00*%
%TF.ProjectId,keyboard-double_side,6b657962-6f61-4726-942d-646f75626c65,rev?*%
%TF.SameCoordinates,Original*%
%TF.FileFunction,Copper,L2,Bot*%
%TF.FilePolarity,Positive*%
%FSLAX46Y46*%
G04 Gerber Fmt 4.6, Leading zero omitted, Abs format (unit mm)*
G04 Created by KiCad (PCBNEW (6.0.8)) date 2023-01-31 20:26:13*
%MOMM*%
%LPD*%
G01*
G04 APERTURE LIST*
%TA.AperFunction,ComponentPad*%
%ADD10C,2.200000*%
%TD*%
%TA.AperFunction,SMDPad,CuDef*%
%ADD11R,1.300000X0.500000*%
%TD*%
%TA.AperFunction,SMDPad,CuDef*%
%ADD12R,1.300000X1.200000*%
%TD*%
%TA.AperFunction,ComponentPad*%
%ADD13C,1.100000*%
%TD*%
%TA.AperFunction,ComponentPad*%
%ADD14C,3.300000*%
%TD*%
%TA.AperFunction,ComponentPad*%
%ADD15C,1.800000*%
%TD*%
%TA.AperFunction,ComponentPad*%
%ADD16O,3.100000X1.700000*%
%TD*%
%TA.AperFunction,ComponentPad*%
%ADD17O,2.200000X1.700000*%
%TD*%
%TA.AperFunction,ViaPad*%
%ADD18C,0.800000*%
%TD*%
%TA.AperFunction,Conductor*%
%ADD19C,0.250000*%
%TD*%
%TA.AperFunction,Conductor*%
%ADD20C,0.500000*%
%TD*%
G04 APERTURE END LIST*
D10*
%TO.P,SW6,1,1*%
%TO.N,col1*%
X100535000Y-113995000D03*
X105615000Y-113995000D03*
%TO.P,SW6,2,2*%
%TO.N,Net-(D6-Pad2)*%
X99265000Y-116535000D03*
X106885000Y-116535000D03*
%TD*%
%TO.P,SW13,1,1*%
%TO.N,col3*%
X143765000Y-114020000D03*
X138685000Y-114020000D03*
%TO.P,SW13,2,2*%
%TO.N,Net-(SW13-Pad2)*%
X145035000Y-116560000D03*
X137415000Y-116560000D03*
%TD*%
D11*
%TO.P,D1,1,K*%
%TO.N,row0*%
X85575000Y-94900000D03*
D12*
X84751934Y-94900109D03*
D13*
X86475000Y-94900000D03*
%TO.P,D1,2,A*%
%TO.N,Net-(SW1-Pad2)*%
X79475000Y-94900000D03*
D11*
X80375000Y-94900000D03*
D12*
X81201934Y-94900109D03*
%TD*%
D10*
%TO.P,SW9,1,1*%
%TO.N,col2*%
X119612235Y-109341441D03*
X124692235Y-109341441D03*
%TO.P,SW9,2,2*%
%TO.N,Net-(SW9-Pad2)*%
X125962235Y-111881441D03*
X118342235Y-111881441D03*
%TD*%
%TO.P,SW11,1,1*%
%TO.N,col3*%
X143715000Y-75920000D03*
X138635000Y-75920000D03*
%TO.P,SW11,2,2*%
%TO.N,Net-(SW11-Pad2)*%
X137365000Y-78460000D03*
X144985000Y-78460000D03*
%TD*%
D13*
%TO.P,D11,1,K*%
%TO.N,row0*%
X143600000Y-85675000D03*
D12*
X141876934Y-85675109D03*
D11*
X142700000Y-85675000D03*
D13*
%TO.P,D11,2,A*%
%TO.N,Net-(SW11-Pad2)*%
X136600000Y-85675000D03*
D12*
X138326934Y-85675109D03*
D11*
X137500000Y-85675000D03*
%TD*%
D10*
%TO.P,SW4,1,1*%
%TO.N,col1*%
X100525000Y-75915000D03*
X105605000Y-75915000D03*
%TO.P,SW4,2,2*%
%TO.N,Net-(SW4-Pad2)*%
X99255000Y-78455000D03*
X106875000Y-78455000D03*
%TD*%
%TO.P,SW8,1,1*%
%TO.N,col2*%
X124690000Y-90295000D03*
X119610000Y-90295000D03*
%TO.P,SW8,2,2*%
%TO.N,Net-(SW8-Pad2)*%
X125960000Y-92835000D03*
X118340000Y-92835000D03*
%TD*%
%TO.P,SW14,1,1*%
%TO.N,col3*%
X161779583Y-137208522D03*
X156776760Y-136326389D03*
%TO.P,SW14,2,2*%
%TO.N,Net-(SW14-Pad2)*%
X155084987Y-138607268D03*
X162589223Y-139930467D03*
%TD*%
%TO.P,SW10,1,1*%
%TO.N,col2*%
X140015000Y-134845000D03*
X134935000Y-134845000D03*
%TO.P,SW10,2,2*%
%TO.N,Net-(SW10-Pad2)*%
X141285000Y-137385000D03*
X133665000Y-137385000D03*
%TD*%
D11*
%TO.P,D10,1,K*%
%TO.N,row3*%
X139050000Y-144650000D03*
D12*
X138226934Y-144650109D03*
D13*
X139950000Y-144650000D03*
D12*
%TO.P,D10,2,A*%
%TO.N,Net-(SW10-Pad2)*%
X134676934Y-144650109D03*
D13*
X132950000Y-144650000D03*
D11*
X133850000Y-144650000D03*
%TD*%
%TO.P,D2,1,K*%
%TO.N,row1*%
X85550000Y-113575000D03*
D13*
X86450000Y-113575000D03*
D12*
X84726934Y-113575109D03*
D13*
%TO.P,D2,2,A*%
%TO.N,Net-(SW2-Pad2)*%
X79450000Y-113575000D03*
D12*
X81176934Y-113575109D03*
D11*
X80350000Y-113575000D03*
%TD*%
D10*
%TO.P,SW2,1,1*%
%TO.N,col0*%
X86565000Y-104445000D03*
X81485000Y-104445000D03*
%TO.P,SW2,2,2*%
%TO.N,Net-(SW2-Pad2)*%
X80215000Y-106985000D03*
X87835000Y-106985000D03*
%TD*%
D13*
%TO.P,D4,1,K*%
%TO.N,row0*%
X105575000Y-85600000D03*
D12*
X103851934Y-85600109D03*
D11*
X104675000Y-85600000D03*
D12*
%TO.P,D4,2,A*%
%TO.N,Net-(SW4-Pad2)*%
X100301934Y-85600109D03*
D11*
X99475000Y-85600000D03*
D13*
X98575000Y-85600000D03*
%TD*%
D14*
%TO.P,,*%
%TO.N,*%
X190175000Y-156025000D03*
%TD*%
D10*
%TO.P,SW1,1,1*%
%TO.N,col0*%
X86565000Y-85395000D03*
X81485000Y-85395000D03*
%TO.P,SW1,2,2*%
%TO.N,Net-(SW1-Pad2)*%
X87835000Y-87935000D03*
X80215000Y-87935000D03*
%TD*%
D15*
%TO.P,U2,1,TX*%
%TO.N,raw*%
X176135000Y-75595000D03*
%TO.P,U2,2,RX*%
%TO.N,GND*%
X176135000Y-78135000D03*
%TO.P,U2,3,GND*%
%TO.N,reset*%
X176135000Y-80675000D03*
%TO.P,U2,4,GND*%
%TO.N,unconnected-(U2-Pad4)*%
X176135000Y-83215000D03*
%TO.P,U2,5,SDA*%
%TO.N,unconnected-(U2-Pad5)*%
X176135000Y-85755000D03*
%TO.P,U2,6,SCL*%
%TO.N,col0*%
X176135000Y-88295000D03*
%TO.P,U2,7,D4*%
%TO.N,col1*%
X176135000Y-90835000D03*
%TO.P,U2,8,C6*%
%TO.N,col2*%
X176135000Y-93375000D03*
%TO.P,U2,9,D7*%
%TO.N,col3*%
X176135000Y-95915000D03*
%TO.P,U2,10,E6*%
%TO.N,col4*%
X176135000Y-98455000D03*
%TO.P,U2,11,B4*%
%TO.N,unconnected-(U2-Pad11)*%
X176135000Y-100995000D03*
%TO.P,U2,12,B5*%
%TO.N,unconnected-(U2-Pad12)*%
X176135000Y-103535000D03*
%TO.P,U2,13,B6*%
%TO.N,unconnected-(U2-Pad13)*%
X191375000Y-103535000D03*
%TO.P,U2,14,B2*%
%TO.N,unconnected-(U2-Pad14)*%
X191375000Y-100995000D03*
%TO.P,U2,15,B3*%
%TO.N,row3*%
X191375000Y-98455000D03*
%TO.P,U2,16,B1*%
%TO.N,row2*%
X191375000Y-95915000D03*
%TO.P,U2,17,F7*%
%TO.N,row1*%
X191375000Y-93375000D03*
%TO.P,U2,18,F6*%
%TO.N,row0*%
X191375000Y-90835000D03*
%TO.P,U2,19,F5*%
%TO.N,unconnected-(U2-Pad19)*%
X191375000Y-88295000D03*
%TO.P,U2,20,F4*%
%TO.N,unconnected-(U2-Pad20)*%
X191375000Y-85755000D03*
%TO.P,U2,21,VCC*%
%TO.N,GND*%
X191375000Y-83215000D03*
%TO.P,U2,22,RST*%
X191375000Y-80675000D03*
%TO.P,U2,23,GND*%
%TO.N,data*%
X191375000Y-78135000D03*
%TO.P,U2,24,RAW*%
%TO.N,unconnected-(U2-Pad24)*%
X191375000Y-75595000D03*
%TD*%
D12*
%TO.P,D3,1,K*%
%TO.N,row2*%
X84851934Y-133150109D03*
D13*
X86575000Y-133150000D03*
D11*
X85675000Y-133150000D03*
%TO.P,D3,2,A*%
%TO.N,Net-(SW3-Pad2)*%
X80475000Y-133150000D03*
D13*
X79575000Y-133150000D03*
D12*
X81301934Y-133150109D03*
%TD*%
D14*
%TO.P,,*%
%TO.N,*%
X98450000Y-140650000D03*
%TD*%
D13*
%TO.P,D15,1,K*%
%TO.N,row0*%
X162825000Y-87125000D03*
D12*
X161101934Y-87125109D03*
D11*
X161925000Y-87125000D03*
D13*
%TO.P,D15,2,A*%
%TO.N,Net-(SW15-Pad2)*%
X155825000Y-87125000D03*
D11*
X156725000Y-87125000D03*
D12*
X157551934Y-87125109D03*
%TD*%
D16*
%TO.P,J1,A*%
%TO.N,raw*%
X184325000Y-123275000D03*
X184325000Y-118850000D03*
D17*
%TO.P,J1,B*%
%TO.N,data*%
X191775000Y-118875000D03*
X191775000Y-123275000D03*
%TO.P,J1,C*%
%TO.N,GND*%
X188775000Y-123275000D03*
X188775000Y-118875000D03*
D16*
%TO.P,J1,D*%
%TO.N,raw*%
X184325000Y-118850000D03*
X184325000Y-123275000D03*
%TD*%
D14*
%TO.P,,*%
%TO.N,*%
X167925000Y-68650000D03*
%TD*%
D12*
%TO.P,D8,1,K*%
%TO.N,row1*%
X122826934Y-100150109D03*
D11*
X123650000Y-100150000D03*
D13*
X124550000Y-100150000D03*
D11*
%TO.P,D8,2,A*%
%TO.N,Net-(SW8-Pad2)*%
X118450000Y-100150000D03*
D12*
X119276934Y-100150109D03*
D13*
X117550000Y-100150000D03*
%TD*%
D10*
%TO.P,SW18,1,1*%
%TO.N,col4*%
X178150643Y-141632630D03*
X182924282Y-143370092D03*
%TO.P,SW18,2,2*%
%TO.N,Net-(SW18-Pad2)*%
X176088502Y-143585084D03*
X183248960Y-146191277D03*
%TD*%
D13*
%TO.P,D6,1,K*%
%TO.N,row2*%
X105525000Y-123700000D03*
D12*
X103801934Y-123700109D03*
D11*
X104625000Y-123700000D03*
D12*
%TO.P,D6,2,A*%
%TO.N,Net-(D6-Pad2)*%
X100251934Y-123700109D03*
D11*
X99425000Y-123700000D03*
D13*
X98525000Y-123700000D03*
%TD*%
D10*
%TO.P,SW15,1,1*%
%TO.N,col4*%
X162815000Y-77440000D03*
X157735000Y-77440000D03*
%TO.P,SW15,2,2*%
%TO.N,Net-(SW15-Pad2)*%
X156465000Y-79980000D03*
X164085000Y-79980000D03*
%TD*%
%TO.P,SW17,1,1*%
%TO.N,col4*%
X162815000Y-115570000D03*
X157735000Y-115570000D03*
%TO.P,SW17,2,2*%
%TO.N,Net-(SW17-Pad2)*%
X164085000Y-118110000D03*
X156465000Y-118110000D03*
%TD*%
D12*
%TO.P,D7,1,K*%
%TO.N,row0*%
X122876934Y-80800109D03*
D11*
X123700000Y-80800000D03*
D13*
X124600000Y-80800000D03*
D12*
%TO.P,D7,2,A*%
%TO.N,Net-(SW7-Pad2)*%
X119326934Y-80800109D03*
D13*
X117600000Y-80800000D03*
D11*
X118500000Y-80800000D03*
%TD*%
D12*
%TO.P,D16,1,K*%
%TO.N,row1*%
X161151934Y-106100109D03*
D13*
X162875000Y-106100000D03*
D11*
X161975000Y-106100000D03*
D12*
%TO.P,D16,2,A*%
%TO.N,Net-(SW16-Pad2)*%
X157601934Y-106100109D03*
D13*
X155875000Y-106100000D03*
D11*
X156775000Y-106100000D03*
%TD*%
D13*
%TO.P,D5,1,K*%
%TO.N,row1*%
X105600000Y-104725000D03*
D11*
X104700000Y-104725000D03*
D12*
X103876934Y-104725109D03*
D11*
%TO.P,D5,2,A*%
%TO.N,Net-(SW5-Pad2)*%
X99500000Y-104725000D03*
D13*
X98600000Y-104725000D03*
D12*
X100326934Y-104725109D03*
%TD*%
D10*
%TO.P,SW3,1,1*%
%TO.N,col0*%
X86565000Y-123520000D03*
X81485000Y-123520000D03*
%TO.P,SW3,2,2*%
%TO.N,Net-(SW3-Pad2)*%
X80215000Y-126060000D03*
X87835000Y-126060000D03*
%TD*%
%TO.P,SW5,1,1*%
%TO.N,col1*%
X100535000Y-94970000D03*
X105615000Y-94970000D03*
%TO.P,SW5,2,2*%
%TO.N,Net-(SW5-Pad2)*%
X99265000Y-97510000D03*
X106885000Y-97510000D03*
%TD*%
%TO.P,SW12,1,1*%
%TO.N,col3*%
X138660000Y-94970000D03*
X143740000Y-94970000D03*
%TO.P,SW12,2,2*%
%TO.N,Net-(SW12-Pad2)*%
X145010000Y-97510000D03*
X137390000Y-97510000D03*
%TD*%
%TO.P,SW7,1,1*%
%TO.N,col2*%
X124665000Y-71245000D03*
X119585000Y-71245000D03*
%TO.P,SW7,2,2*%
%TO.N,Net-(SW7-Pad2)*%
X118315000Y-73785000D03*
X125935000Y-73785000D03*
%TD*%
%TO.P,SW16,1,1*%
%TO.N,col4*%
X157735000Y-96520000D03*
X162815000Y-96520000D03*
%TO.P,SW16,2,2*%
%TO.N,Net-(SW16-Pad2)*%
X156465000Y-99060000D03*
X164085000Y-99060000D03*
%TD*%
D13*
%TO.P,D13,1,K*%
%TO.N,row2*%
X143650000Y-123675000D03*
D12*
X141926934Y-123675109D03*
D11*
X142750000Y-123675000D03*
D12*
%TO.P,D13,2,A*%
%TO.N,Net-(SW13-Pad2)*%
X138376934Y-123675109D03*
D11*
X137550000Y-123675000D03*
D13*
X136650000Y-123675000D03*
%TD*%
D15*
%TO.P,U1,1,TX*%
%TO.N,unconnected-(U1-Pad1)*%
X174210000Y-74295000D03*
%TO.P,U1,2,RX*%
%TO.N,data*%
X174210000Y-76835000D03*
%TO.P,U1,3,GND*%
%TO.N,GND*%
X174210000Y-79375000D03*
%TO.P,U1,4,GND*%
X174210000Y-81915000D03*
%TO.P,U1,5,SDA*%
%TO.N,unconnected-(U1-Pad5)*%
X174210000Y-84455000D03*
%TO.P,U1,6,SCL*%
%TO.N,unconnected-(U1-Pad6)*%
X174210000Y-86995000D03*
%TO.P,U1,7,D4*%
%TO.N,row0*%
X174210000Y-89535000D03*
%TO.P,U1,8,C6*%
%TO.N,row1*%
X174210000Y-92075000D03*
%TO.P,U1,9,D7*%
%TO.N,row2*%
X174210000Y-94615000D03*
%TO.P,U1,10,E6*%
%TO.N,row3*%
X174210000Y-97155000D03*
%TO.P,U1,11,B4*%
%TO.N,unconnected-(U1-Pad11)*%
X174210000Y-99695000D03*
%TO.P,U1,12,B5*%
%TO.N,unconnected-(U1-Pad12)*%
X174210000Y-102235000D03*
%TO.P,U1,13,B6*%
%TO.N,unconnected-(U1-Pad13)*%
X189450000Y-102235000D03*
%TO.P,U1,14,B2*%
%TO.N,unconnected-(U1-Pad14)*%
X189450000Y-99695000D03*
%TO.P,U1,15,B3*%
%TO.N,col4*%
X189450000Y-97155000D03*
%TO.P,U1,16,B1*%
%TO.N,col3*%
X189450000Y-94615000D03*
%TO.P,U1,17,F7*%
%TO.N,col2*%
X189450000Y-92075000D03*
%TO.P,U1,18,F6*%
%TO.N,col1*%
X189450000Y-89535000D03*
%TO.P,U1,19,F5*%
%TO.N,col0*%
X189450000Y-86995000D03*
%TO.P,U1,20,F4*%
%TO.N,unconnected-(U1-Pad20)*%
X189450000Y-84455000D03*
%TO.P,U1,21,VCC*%
%TO.N,unconnected-(U1-Pad21)*%
X189450000Y-81915000D03*
%TO.P,U1,22,RST*%
%TO.N,reset*%
X189450000Y-79375000D03*
%TO.P,U1,23,GND*%
%TO.N,GND*%
X189450000Y-76835000D03*
%TO.P,U1,24,RAW*%
%TO.N,raw*%
X189450000Y-74295000D03*
%TD*%
D12*
%TO.P,D14,1,K*%
%TO.N,row3*%
X159101934Y-145600109D03*
D13*
X160825000Y-145600000D03*
D11*
X159925000Y-145600000D03*
D13*
%TO.P,D14,2,A*%
%TO.N,Net-(SW14-Pad2)*%
X153825000Y-145600000D03*
D12*
X155551934Y-145600109D03*
D11*
X154725000Y-145600000D03*
%TD*%
D14*
%TO.P,,*%
%TO.N,*%
X75475000Y-69750000D03*
%TD*%
D13*
%TO.P,D9,1,K*%
%TO.N,row2*%
X124625000Y-118875000D03*
D11*
X123725000Y-118875000D03*
D12*
X122901934Y-118875109D03*
D13*
%TO.P,D9,2,A*%
%TO.N,Net-(SW9-Pad2)*%
X117625000Y-118875000D03*
D12*
X119351934Y-118875109D03*
D11*
X118525000Y-118875000D03*
%TD*%
D12*
%TO.P,D17,1,K*%
%TO.N,row2*%
X161051934Y-125050109D03*
D11*
X161875000Y-125050000D03*
D13*
X162775000Y-125050000D03*
D12*
%TO.P,D17,2,A*%
%TO.N,Net-(SW17-Pad2)*%
X157501934Y-125050109D03*
D11*
X156675000Y-125050000D03*
D13*
X155775000Y-125050000D03*
%TD*%
%TO.P,D18,1,K*%
%TO.N,row3*%
X181800000Y-151700000D03*
D12*
X180076934Y-151700109D03*
D11*
X180900000Y-151700000D03*
%TO.P,D18,2,A*%
%TO.N,Net-(SW18-Pad2)*%
X175700000Y-151700000D03*
D13*
X174800000Y-151700000D03*
D12*
X176526934Y-151700109D03*
%TD*%
D11*
%TO.P,D12,1,K*%
%TO.N,row1*%
X142800000Y-104425000D03*
D13*
X143700000Y-104425000D03*
D12*
X141976934Y-104425109D03*
D11*
%TO.P,D12,2,A*%
%TO.N,Net-(SW12-Pad2)*%
X137600000Y-104425000D03*
D13*
X136700000Y-104425000D03*
D12*
X138426934Y-104425109D03*
%TD*%
D18*
%TO.N,row0*%
X179385000Y-90835000D03*
%TO.N,row1*%
X179350000Y-93375000D03*
%TO.N,row2*%
X179340000Y-95915000D03*
%TO.N,row3*%
X179405000Y-98455000D03*
%TO.N,data*%
X187717588Y-76835000D03*
%TO.N,GND*%
X186839821Y-78135179D03*
%TO.N,col0*%
X108050000Y-85900000D03*
X169400000Y-89650000D03*
%TO.N,col1*%
X169325000Y-90825000D03*
X125350000Y-87375000D03*
%TO.N,col2*%
X144800000Y-92300000D03*
X169325000Y-92300000D03*
%TO.N,col3*%
X163625000Y-93600000D03*
X169204312Y-95879312D03*
%TD*%
D19*
%TO.N,row0*%
X191375000Y-90835000D02*
X188150000Y-90835000D01*
D20*
X188150000Y-90835000D02*
X179385000Y-90835000D01*
%TO.N,row1*%
X188050000Y-93375000D02*
X179350000Y-93375000D01*
D19*
X191375000Y-93375000D02*
X188050000Y-93375000D01*
%TO.N,row2*%
X191375000Y-95915000D02*
X187965000Y-95915000D01*
D20*
X187965000Y-95915000D02*
X179340000Y-95915000D01*
%TO.N,row3*%
X187900000Y-98455000D02*
X179405000Y-98455000D01*
D19*
X191375000Y-98455000D02*
X187900000Y-98455000D01*
%TO.N,data*%
X187707588Y-76825000D02*
X187717588Y-76835000D01*
D20*
X177800000Y-76825000D02*
X187707588Y-76825000D01*
D19*
X177790000Y-76835000D02*
X177800000Y-76825000D01*
X174210000Y-76835000D02*
X177790000Y-76835000D01*
%TO.N,GND*%
X192150000Y-76850000D02*
X189465000Y-76850000D01*
D20*
X191375000Y-80675000D02*
X191375000Y-83215000D01*
X174210000Y-79375000D02*
X174210000Y-81915000D01*
X186840000Y-78135000D02*
X176135000Y-78135000D01*
X174210000Y-79375000D02*
X174895000Y-79375000D01*
X192975000Y-79075000D02*
X191375000Y-80675000D01*
X186691915Y-78135179D02*
X186839821Y-78135179D01*
X192975000Y-77675000D02*
X192975000Y-79075000D01*
X186839821Y-78135179D02*
X188149821Y-78135179D01*
X174895000Y-79375000D02*
X176135000Y-78135000D01*
D19*
X192975000Y-77675000D02*
X192150000Y-76850000D01*
X189465000Y-76850000D02*
X189450000Y-76835000D01*
D20*
X188149821Y-78135179D02*
X189450000Y-76835000D01*
%TO.N,reset*%
X188150000Y-80675000D02*
X189450000Y-79375000D01*
X176135000Y-80675000D02*
X188150000Y-80675000D01*
%TO.N,col0*%
X91100000Y-87500000D02*
X91100000Y-118985000D01*
D19*
X170755000Y-88295000D02*
X169400000Y-89650000D01*
D20*
X106450000Y-87500000D02*
X91100000Y-87500000D01*
X91100000Y-118985000D02*
X86565000Y-123520000D01*
X86565000Y-85395000D02*
X88995000Y-85395000D01*
D19*
X176135000Y-88295000D02*
X170755000Y-88295000D01*
D20*
X86565000Y-104445000D02*
X91095000Y-104445000D01*
X91095000Y-104445000D02*
X91100000Y-104450000D01*
X88995000Y-85395000D02*
X91100000Y-87500000D01*
X177435000Y-86995000D02*
X176135000Y-88295000D01*
X189450000Y-86995000D02*
X177435000Y-86995000D01*
X108050000Y-85900000D02*
X106450000Y-87500000D01*
%TO.N,col1*%
X189450000Y-89535000D02*
X177435000Y-89535000D01*
X125350000Y-87375000D02*
X110275000Y-87375000D01*
D19*
X176135000Y-90835000D02*
X169335000Y-90835000D01*
X169335000Y-90835000D02*
X169325000Y-90825000D01*
D20*
X110225000Y-109385000D02*
X105615000Y-113995000D01*
X105605000Y-75915000D02*
X108265000Y-75915000D01*
X110225000Y-77875000D02*
X110225000Y-109385000D01*
X105615000Y-94970000D02*
X110225000Y-94970000D01*
X108265000Y-75915000D02*
X110225000Y-77875000D01*
X177435000Y-89535000D02*
X176135000Y-90835000D01*
%TO.N,col2*%
X129250000Y-92300000D02*
X144800000Y-92300000D01*
X124665000Y-71245000D02*
X126895000Y-71245000D01*
X129250000Y-73600000D02*
X129250000Y-109425000D01*
X129250000Y-109425000D02*
X130725000Y-110900000D01*
X126895000Y-71245000D02*
X129250000Y-73600000D01*
X130750000Y-130660000D02*
X134935000Y-134845000D01*
X124690000Y-90295000D02*
X129250000Y-90295000D01*
X130750000Y-110925000D02*
X130750000Y-130660000D01*
D19*
X170400000Y-93375000D02*
X169325000Y-92300000D01*
D20*
X189450000Y-92075000D02*
X177435000Y-92075000D01*
X124692235Y-109341441D02*
X129241441Y-109341441D01*
X177435000Y-92075000D02*
X176135000Y-93375000D01*
D19*
X176135000Y-93375000D02*
X170400000Y-93375000D01*
D20*
%TO.N,col3*%
X189450000Y-94615000D02*
X177435000Y-94615000D01*
X143715000Y-75920000D02*
X146020000Y-75920000D01*
X148275000Y-93600000D02*
X163625000Y-93600000D01*
X148275000Y-78175000D02*
X148275000Y-116100000D01*
X154651389Y-136326389D02*
X156776760Y-136326389D01*
X146195000Y-114020000D02*
X149675000Y-117500000D01*
X143765000Y-114020000D02*
X146195000Y-114020000D01*
X148270000Y-94970000D02*
X148275000Y-94975000D01*
X149675000Y-131350000D02*
X154651389Y-136326389D01*
X177435000Y-94615000D02*
X176135000Y-95915000D01*
X146020000Y-75920000D02*
X148275000Y-78175000D01*
D19*
X169240000Y-95915000D02*
X176135000Y-95915000D01*
X169204312Y-95879312D02*
X169240000Y-95915000D01*
D20*
X149675000Y-117500000D02*
X149675000Y-131350000D01*
X143740000Y-94970000D02*
X148270000Y-94970000D01*
%TO.N,col4*%
X162815000Y-96520000D02*
X166520000Y-96520000D01*
X166520000Y-96520000D02*
X167425000Y-97425000D01*
X167950000Y-118450000D02*
X167950000Y-136225000D01*
X167475000Y-117975000D02*
X167950000Y-118450000D01*
X177435000Y-97155000D02*
X176135000Y-98455000D01*
X167950000Y-136225000D02*
X173357630Y-141632630D01*
X173357630Y-141632630D02*
X178150643Y-141632630D01*
D19*
X171655000Y-98455000D02*
X171650000Y-98450000D01*
D20*
X168455000Y-98455000D02*
X167425000Y-97425000D01*
X168455000Y-98455000D02*
X171645000Y-98455000D01*
X167475000Y-80000000D02*
X167475000Y-117975000D01*
X162815000Y-77440000D02*
X164915000Y-77440000D01*
X164915000Y-77440000D02*
X167475000Y-80000000D01*
X165070000Y-115570000D02*
X167950000Y-118450000D01*
D19*
X176135000Y-98455000D02*
X171655000Y-98455000D01*
D20*
X189450000Y-97155000D02*
X177435000Y-97155000D01*
X162815000Y-115570000D02*
X165070000Y-115570000D01*
X171645000Y-98455000D02*
X171650000Y-98450000D01*
%TO.N,raw*%
X189450000Y-74295000D02*
X177435000Y-74295000D01*
X177435000Y-74295000D02*
X176135000Y-75595000D01*
%TD*%
M02*
