0
SECTION
2
HEADER
9
$INSUNITS
70
4
0
ENDSEC
0
SECTION
2
TABLES
0
TABLE
2
LTYPE
0
LTYPE
72
65
70
64
2
CONTINUOUS
3
______
73
0
40
0
0
ENDTAB
0
TABLE
2
LAYER
0
ENDTAB
0
ENDSEC
0
SECTION
2
ENTITIES
0
LINE
8
0
10
2.525
20
-7.2875
11
16.525
21
-7.2875
0
LINE
8
0
10
2.525
20
-21.2875
11
16.525
21
-21.2875
0
LINE
8
0
10
2.525
20
-7.2875
11
2.525
21
-21.2875
0
LINE
8
0
10
16.525
20
-7.2875
11
16.525
21
-21.2875
0
LINE
8
0
10
21.575
20
-7.2875
11
35.575
21
-7.2875
0
LINE
8
0
10
21.575
20
-21.2875
11
35.575
21
-21.2875
0
LINE
8
0
10
21.575
20
-7.2875
11
21.575
21
-21.2875
0
LINE
8
0
10
35.575
20
-7.2875
11
35.575
21
-21.2875
0
LINE
8
0
10
40.625
20
-7.2875
11
54.625
21
-7.2875
0
LINE
8
0
10
40.625
20
-21.2875
11
54.625
21
-21.2875
0
LINE
8
0
10
40.625
20
-7.2875
11
40.625
21
-21.2875
0
LINE
8
0
10
54.625
20
-7.2875
11
54.625
21
-21.2875
0
LINE
8
0
10
59.675
20
-7.2875
11
73.675
21
-7.2875
0
LINE
8
0
10
59.675
20
-21.2875
11
73.675
21
-21.2875
0
LINE
8
0
10
59.675
20
-7.2875
11
59.675
21
-21.2875
0
LINE
8
0
10
73.675
20
-7.2875
11
73.675
21
-21.2875
0
LINE
8
0
10
78.725
20
-7.2875
11
92.725
21
-7.2875
0
LINE
8
0
10
78.725
20
-21.2875
11
92.725
21
-21.2875
0
LINE
8
0
10
78.725
20
-7.2875
11
78.725
21
-21.2875
0
LINE
8
0
10
92.725
20
-7.2875
11
92.725
21
-21.2875
0
LINE
8
0
10
97.775
20
-7.2875
11
111.775
21
-7.2875
0
LINE
8
0
10
97.775
20
-21.2875
11
111.775
21
-21.2875
0
LINE
8
0
10
97.775
20
-7.2875
11
97.775
21
-21.2875
0
LINE
8
0
10
111.775
20
-7.2875
11
111.775
21
-21.2875
0
LINE
8
0
10
116.825
20
-7.2875
11
130.825
21
-7.2875
0
LINE
8
0
10
116.825
20
-21.2875
11
130.825
21
-21.2875
0
LINE
8
0
10
116.825
20
-7.2875
11
116.825
21
-21.2875
0
LINE
8
0
10
130.825
20
-7.2875
11
130.825
21
-21.2875
0
LINE
8
0
10
135.875
20
-7.2875
11
149.875
21
-7.2875
0
LINE
8
0
10
135.875
20
-21.2875
11
149.875
21
-21.2875
0
LINE
8
0
10
135.875
20
-7.2875
11
135.875
21
-21.2875
0
LINE
8
0
10
149.875
20
-7.2875
11
149.875
21
-21.2875
0
LINE
8
0
10
154.925
20
-7.2875
11
168.925
21
-7.2875
0
LINE
8
0
10
154.925
20
-21.2875
11
168.925
21
-21.2875
0
LINE
8
0
10
154.925
20
-7.2875
11
154.925
21
-21.2875
0
LINE
8
0
10
168.925
20
-7.2875
11
168.925
21
-21.2875
0
LINE
8
0
10
173.975
20
-7.2875
11
187.975
21
-7.2875
0
LINE
8
0
10
173.975
20
-21.2875
11
187.975
21
-21.2875
0
LINE
8
0
10
173.975
20
-7.2875
11
173.975
21
-21.2875
0
LINE
8
0
10
187.975
20
-7.2875
11
187.975
21
-21.2875
0
LINE
8
0
10
2.525
20
-26.3375
11
16.525
21
-26.3375
0
LINE
8
0
10
2.525
20
-40.3375
11
16.525
21
-40.3375
0
LINE
8
0
10
2.525
20
-26.3375
11
2.525
21
-40.3375
0
LINE
8
0
10
16.525
20
-26.3375
11
16.525
21
-40.3375
0
LINE
8
0
10
21.575
20
-26.3375
11
35.575
21
-26.3375
0
LINE
8
0
10
21.575
20
-40.3375
11
35.575
21
-40.3375
0
LINE
8
0
10
21.575
20
-26.3375
11
21.575
21
-40.3375
0
LINE
8
0
10
35.575
20
-26.3375
11
35.575
21
-40.3375
0
LINE
8
0
10
40.625
20
-26.3375
11
54.625
21
-26.3375
0
LINE
8
0
10
40.625
20
-40.3375
11
54.625
21
-40.3375
0
LINE
8
0
10
40.625
20
-26.3375
11
40.625
21
-40.3375
0
LINE
8
0
10
54.625
20
-26.3375
11
54.625
21
-40.3375
0
LINE
8
0
10
59.675
20
-26.3375
11
73.675
21
-26.3375
0
LINE
8
0
10
59.675
20
-40.3375
11
73.675
21
-40.3375
0
LINE
8
0
10
59.675
20
-26.3375
11
59.675
21
-40.3375
0
LINE
8
0
10
73.675
20
-26.3375
11
73.675
21
-40.3375
0
LINE
8
0
10
78.725
20
-26.3375
11
92.725
21
-26.3375
0
LINE
8
0
10
78.725
20
-40.3375
11
92.725
21
-40.3375
0
LINE
8
0
10
78.725
20
-26.3375
11
78.725
21
-40.3375
0
LINE
8
0
10
92.725
20
-26.3375
11
92.725
21
-40.3375
0
LINE
8
0
10
97.775
20
-26.3375
11
111.775
21
-26.3375
0
LINE
8
0
10
97.775
20
-40.3375
11
111.775
21
-40.3375
0
LINE
8
0
10
97.775
20
-26.3375
11
97.775
21
-40.3375
0
LINE
8
0
10
111.775
20
-26.3375
11
111.775
21
-40.3375
0
LINE
8
0
10
116.825
20
-26.3375
11
130.825
21
-26.3375
0
LINE
8
0
10
116.825
20
-40.3375
11
130.825
21
-40.3375
0
LINE
8
0
10
116.825
20
-26.3375
11
116.825
21
-40.3375
0
LINE
8
0
10
130.825
20
-26.3375
11
130.825
21
-40.3375
0
LINE
8
0
10
135.875
20
-26.3375
11
149.875
21
-26.3375
0
LINE
8
0
10
135.875
20
-40.3375
11
149.875
21
-40.3375
0
LINE
8
0
10
135.875
20
-26.3375
11
135.875
21
-40.3375
0
LINE
8
0
10
149.875
20
-26.3375
11
149.875
21
-40.3375
0
LINE
8
0
10
154.925
20
-26.3375
11
168.925
21
-26.3375
0
LINE
8
0
10
154.925
20
-40.3375
11
168.925
21
-40.3375
0
LINE
8
0
10
154.925
20
-26.3375
11
154.925
21
-40.3375
0
LINE
8
0
10
168.925
20
-26.3375
11
168.925
21
-40.3375
0
LINE
8
0
10
173.975
20
-26.3375
11
187.975
21
-26.3375
0
LINE
8
0
10
173.975
20
-40.3375
11
187.975
21
-40.3375
0
LINE
8
0
10
173.975
20
-26.3375
11
173.975
21
-40.3375
0
LINE
8
0
10
187.975
20
-26.3375
11
187.975
21
-40.3375
0
LINE
8
0
10
2.525
20
-45.3875
11
16.525
21
-45.3875
0
LINE
8
0
10
2.525
20
-59.3875
11
16.525
21
-59.3875
0
LINE
8
0
10
2.525
20
-45.3875
11
2.525
21
-59.3875
0
LINE
8
0
10
16.525
20
-45.3875
11
16.525
21
-59.3875
0
LINE
8
0
10
21.575
20
-45.3875
11
35.575
21
-45.3875
0
LINE
8
0
10
21.575
20
-59.3875
11
35.575
21
-59.3875
0
LINE
8
0
10
21.575
20
-45.3875
11
21.575
21
-59.3875
0
LINE
8
0
10
35.575
20
-45.3875
11
35.575
21
-59.3875
0
LINE
8
0
10
40.625
20
-45.3875
11
54.625
21
-45.3875
0
LINE
8
0
10
40.625
20
-59.3875
11
54.625
21
-59.3875
0
LINE
8
0
10
40.625
20
-45.3875
11
40.625
21
-59.3875
0
LINE
8
0
10
54.625
20
-45.3875
11
54.625
21
-59.3875
0
LINE
8
0
10
59.675
20
-45.3875
11
73.675
21
-45.3875
0
LINE
8
0
10
59.675
20
-59.3875
11
73.675
21
-59.3875
0
LINE
8
0
10
59.675
20
-45.3875
11
59.675
21
-59.3875
0
LINE
8
0
10
73.675
20
-45.3875
11
73.675
21
-59.3875
0
LINE
8
0
10
78.725
20
-45.3875
11
92.725
21
-45.3875
0
LINE
8
0
10
78.725
20
-59.3875
11
92.725
21
-59.3875
0
LINE
8
0
10
78.725
20
-45.3875
11
78.725
21
-59.3875
0
LINE
8
0
10
92.725
20
-45.3875
11
92.725
21
-59.3875
0
LINE
8
0
10
97.775
20
-45.3875
11
111.775
21
-45.3875
0
LINE
8
0
10
97.775
20
-59.3875
11
111.775
21
-59.3875
0
LINE
8
0
10
97.775
20
-45.3875
11
97.775
21
-59.3875
0
LINE
8
0
10
111.775
20
-45.3875
11
111.775
21
-59.3875
0
LINE
8
0
10
116.825
20
-45.3875
11
130.825
21
-45.3875
0
LINE
8
0
10
116.825
20
-59.3875
11
130.825
21
-59.3875
0
LINE
8
0
10
116.825
20
-45.3875
11
116.825
21
-59.3875
0
LINE
8
0
10
130.825
20
-45.3875
11
130.825
21
-59.3875
0
LINE
8
0
10
135.875
20
-45.3875
11
149.875
21
-45.3875
0
LINE
8
0
10
135.875
20
-59.3875
11
149.875
21
-59.3875
0
LINE
8
0
10
135.875
20
-45.3875
11
135.875
21
-59.3875
0
LINE
8
0
10
149.875
20
-45.3875
11
149.875
21
-59.3875
0
LINE
8
0
10
154.925
20
-45.3875
11
168.925
21
-45.3875
0
LINE
8
0
10
154.925
20
-59.3875
11
168.925
21
-59.3875
0
LINE
8
0
10
154.925
20
-45.3875
11
154.925
21
-59.3875
0
LINE
8
0
10
168.925
20
-45.3875
11
168.925
21
-59.3875
0
LINE
8
0
10
173.975
20
-45.3875
11
187.975
21
-45.3875
0
LINE
8
0
10
173.975
20
-59.3875
11
187.975
21
-59.3875
0
LINE
8
0
10
173.975
20
-45.3875
11
173.975
21
-59.3875
0
LINE
8
0
10
187.975
20
-45.3875
11
187.975
21
-59.3875
0
LINE
8
0
10
52.53125
20
-64.4375
11
66.53125
21
-64.4375
0
LINE
8
0
10
52.53125
20
-78.4375
11
66.53125
21
-78.4375
0
LINE
8
0
10
52.53125
20
-64.4375
11
52.53125
21
-78.4375
0
LINE
8
0
10
66.53125
20
-64.4375
11
66.53125
21
-78.4375
0
LINE
8
0
10
76.34375
20
-64.4375
11
90.34375
21
-64.4375
0
LINE
8
0
10
76.34375
20
-78.4375
11
90.34375
21
-78.4375
0
LINE
8
0
10
76.34375
20
-64.4375
11
76.34375
21
-78.4375
0
LINE
8
0
10
90.34375
20
-64.4375
11
90.34375
21
-78.4375
0
LINE
8
0
10
100.15625
20
-64.4375
11
114.15625
21
-64.4375
0
LINE
8
0
10
100.15625
20
-78.4375
11
114.15625
21
-78.4375
0
LINE
8
0
10
100.15625
20
-64.4375
11
100.15625
21
-78.4375
0
LINE
8
0
10
114.15625
20
-64.4375
11
114.15625
21
-78.4375
0
LINE
8
0
10
123.96875
20
-64.4375
11
137.96875
21
-64.4375
0
LINE
8
0
10
123.96875
20
-78.4375
11
137.96875
21
-78.4375
0
LINE
8
0
10
123.96875
20
-64.4375
11
123.96875
21
-78.4375
0
LINE
8
0
10
137.96875
20
-64.4375
11
137.96875
21
-78.4375
0
LINE
8
0
10
0
20
-80.9625
11
190.5
21
-80.9625
0
LINE
8
0
10
0
20
-4.7625
11
190.5
21
-4.7625
0
LINE
8
0
10
0
20
-80.9625
11
0
21
-4.7625
0
LINE
8
0
10
190.5
20
-80.9625
11
190.5
21
-4.7625
0
ENDSEC
0
EOF